<svg xmlns="http://www.w3.org/2000/svg" viewBox="0 0 3998 1617">
	<g id="valve-round-down_1" transform="translate(0,0)" >
		<svg height="134" viewBox="0 0 456 509" width="126" preserveAspectRatio="none">
			<path style="fill:#c0c0c0;stroke:#000;stroke-width:2" d="M0,0 l456,228 0,-228 -456,228 0,-228z">
			</path>
			<path style="fill:none;stroke:#000;stroke-width:2" d="M228,115 l0,212">
			</path>
			<path style="fill:#c0c0c0;stroke:#000;stroke-width:2" d="M228,324 l-186,0 1,19 3,18 4,18 7,17 8,16 9,15 11,15 12,13 13,12 14,10 16,10 16,7 17,7 18,4 18,3 19,1 19,-1 19,-3 17,-4 18,-7 16,-7 15,-10 14,-10 14,-12 12,-13 10,-15 10,-15 7,-16 7,-17 4,-18 3,-18 1,-19 -186,0z">
			</path>
		</svg>
	</g>
</svg>
