<svg xmlns="http://www.w3.org/2000/svg" viewBox="0 0 3998 1617">
	<g id="number-4_1" transform="translate(0,0)" >
		<svg height="89" viewBox="0 0 999 999" width="93" preserveAspectRatio="none">
			<path style="fill:#ebebe1;stroke:#adad84;stroke-width:2" d="M139,77 l32,-32 656,0 32,32 0,796 -32,32 -656,0 -32,-32 0,-796z">
			</path>
			<path style="fill:#e1e1d1" d="M531,671 l156,-234 124,-376 32,32 0,766 -32,30 -624,0 -32,-30 376,-188z">
			</path>
			<path style="fill:#e1e1d1" d="M311,125 l-62,62 -62,218 -32,-30 0,-282 32,-32 280,0 32,32 -188,32z">
			</path>
			<path style="fill:none;stroke:#fff;stroke-width:2" d="M139,873 l0,-796 32,-32 656,0">
			</path>
			<path style="fill:#666" d="M540,725 l0,-111 -210,0 0,-60 223,-282 46,0 0,282 59,0 0,60 -59,0 0,111 -59,0z">
			</path>
			<path style="fill:#ebebe1" d="M540,554 l0,-170 -138,170 138,0z">
			</path>
		</svg>
	</g>
</svg>
