<svg xmlns="http://www.w3.org/2000/svg" viewBox="0 0 3998 1617">
	<g id="number-0_1" transform="translate(0,0)" >
		<svg height="89" viewBox="0 0 999 999" width="93" preserveAspectRatio="none">
			<path style="fill:#ebebe1;stroke:#adad84;stroke-width:2" d="M139,77 l32,-32 656,0 32,32 0,796 -32,32 -656,0 -32,-32 0,-796z">
			</path>
			<path style="fill:#e1e1d1" d="M531,671 l156,-234 124,-376 32,32 0,766 -32,30 -624,0 -32,-30 376,-188z">
			</path>
			<path style="fill:#e1e1d1" d="M311,125 l-62,62 -62,218 -32,-30 0,-282 32,-32 280,0 32,32 -188,32z">
			</path>
			<path style="fill:none;stroke:#fff;stroke-width:2" d="M139,873 l0,-796 32,-32 656,0">
			</path>
			<path style="fill:#666" d="M349,502 l1,-38 3,-35 4,-31 8,-34 11,-24 17,-26 22,-22 27,-15 28,-8 24,-3 6,-1 5,0 29,3 27,8 23,16 21,22 17,23 13,24 10,29 6,30 4,29 3,30 0,8 0,8 0,7 -1,38 -4,35 -6,31 -9,27 -14,29 -16,24 -22,20 -27,14 -28,9 -24,3 -7,0 -7,0 -29,-4 -28,-8 -25,-14 -21,-21 -13,-27 -10,-26 -8,-30 -6,-33 -3,-28 -1,-23 0,-8 0,-8z">
			</path>
			<path style="fill:#ebebe1" d="M409,502 l1,39 3,33 6,29 8,29 16,25 24,15 28,7 5,0 5,0 29,-7 23,-15 20,-25 11,-29 6,-29 4,-33 1,-26 0,-13 0,-13 -2,-37 -4,-33 -8,-34 -12,-28 -20,-21 -28,-15 -20,-3 -5,0 -5,0 -28,7 -24,15 -14,25 -8,26 -6,28 -4,33 -2,30 0,7 0,6 0,7z">
			</path>
		</svg>
	</g>
</svg>
