<svg xmlns="http://www.w3.org/2000/svg" viewBox="0 0 3998 1617">
	<g id="number-5_1" transform="translate(0,0)" >
		<svg height="89" viewBox="0 0 999 999" width="93" preserveAspectRatio="none">
			<path style="fill:#ebebe1;stroke:#adad84;stroke-width:2" d="M140,77 l31,-31 656,0 31,31 0,796 -31,32 -656,0 -31,-32 0,-796z">
			</path>
			<path style="fill:#e1e1d1" d="M530,671 l156,-234 125,-375 31,31 0,765 -31,31 -624,0 -32,-31 375,-187z">
			</path>
			<path style="fill:#e1e1d1" d="M312,124 l-63,63 -62,218 -31,-31 0,-281 31,-31 281,0 31,31 -187,31z">
			</path>
			<path style="fill:none;stroke:#fff;stroke-width:2" d="M140,873 l0,-796 31,-31 656,0">
			</path>
			<path style="fill:#666" d="M349,600 l60,-6 5,29 11,24 22,21 31,10 36,-1 30,-10 29,-20 17,-26 8,-35 -1,-32 -10,-31 -20,-26 -27,-13 -34,-8 -29,2 -29,11 -26,16 -7,10 -59,-7 46,-236 230,0 0,59 -184,0 -26,125 27,-16 31,-12 28,-5 34,3 26,7 29,16 20,19 17,25 14,28 8,31 1,7 1,8 0,7 -2,30 -8,28 -12,25 -17,22 -24,22 -29,17 -25,9 -28,4 -9,1 -10,0 -28,-2 -32,-9 -29,-15 -24,-20 -15,-23 -11,-26 -5,-22 -1,-7 0,-8z">
			</path>
		</svg>
	</g>
</svg>
