<svg xmlns="http://www.w3.org/2000/svg" viewBox="0 0 3998 1617">
	<g id="number-6_1" transform="translate(0,0)" >
		<svg height="89" viewBox="0 0 999 999" width="93" preserveAspectRatio="none">
			<path style="fill:#ebebe1;stroke:#adad84;stroke-width:2" d="M139,77 l32,-32 656,0 32,32 0,796 -32,32 -656,0 -32,-32 0,-796z">
			</path>
			<path style="fill:#e1e1d1" d="M531,671 l156,-234 124,-376 32,32 0,766 -32,30 -624,0 -32,-30 376,-188z">
			</path>
			<path style="fill:#e1e1d1" d="M311,125 l-62,62 -62,218 -32,-30 0,-282 32,-32 280,0 32,32 -188,32z">
			</path>
			<path style="fill:none;stroke:#fff;stroke-width:2" d="M139,873 l0,-796 32,-32 656,0">
			</path>
			<path style="fill:#666" d="M651,384 l-58,6 -12,-25 -18,-23 -22,-16 -29,-8 -31,5 -24,12 -22,23 -17,25 -9,31 -5,33 -2,32 0,16 17,-21 21,-19 24,-14 25,-9 32,-2 34,5 25,10 22,15 20,20 16,26 13,29 7,31 0,7 0,8 0,5 -4,29 -9,30 -12,24 -18,24 -25,18 -29,12 -29,7 -15,2 -5,0 -5,0 -34,-3 -32,-10 -29,-15 -23,-18 -17,-25 -11,-28 -8,-26 -6,-30 -3,-33 -1,-15 0,-7 0,-7 1,-31 2,-30 4,-29 7,-32 9,-29 11,-26 17,-26 25,-21 31,-15 26,-7 28,-4 9,0 7,0 30,5 27,12 22,16 22,22 18,27 11,30 1,7z">
			</path>
			<path style="fill:#ebebe1" d="M402,574 l0,12 2,12 3,12 3,11 4,10 7,13 8,11 9,8 10,3 8,4 9,3 10,3 11,2 7,1 4,0 4,0 9,0 10,-2 9,-3 9,-3 8,-4 8,-4 9,-7 10,-9 7,-7 5,-9 5,-9 4,-10 2,-11 2,-10 1,-5 0,-5 0,-5 -1,-10 -2,-11 -3,-10 -4,-10 -4,-9 -5,-8 -7,-10 -9,-7 -9,-4 -9,-5 -10,-4 -10,-3 -10,-2 -11,-1 -4,0 -6,0 -10,1 -11,2 -10,3 -10,4 -9,5 -8,4 -9,7 -7,10 -5,8 -4,9 -4,10 -3,10 -2,11 -1,10 0,5 0,-7z">
			</path>
		</svg>
	</g>
</svg>
