<svg xmlns="http://www.w3.org/2000/svg" viewBox="0 0 3998 1617">
	<g id="letter-a_1" transform="translate(0,0)" >
		<svg height="123" viewBox="0 0 999 999" width="117" preserveAspectRatio="none">
			<path style="fill:#ebebe1;stroke:#adad84;stroke-width:2" d="M139,77 l32,-32 656,0 32,32 0,796 -32,32 -656,0 -32,-32 0,-796z">
			</path>
			<path style="fill:#e1e1d1" d="M531,671 l156,-234 124,-376 32,32 0,766 -32,30 -624,0 -32,-30 376,-188z">
			</path>
			<path style="fill:#e1e1d1" d="M311,125 l-62,62 -62,218 -32,-30 0,-282 32,-32 280,0 32,32 -188,32z">
			</path>
			<path style="fill:none;stroke:#fff;stroke-width:2" d="M139,873 l0,-796 32,-32 656,0">
			</path>
			<path style="fill:#666" d="M277,725 l197,-460 52,0 191,460 -59,0 -59,-144 -197,0 -53,144 -72,0z">
			</path>
			<path style="fill:#ebebe1" d="M422,528 l157,0 -46,-118 -5,-14 -4,-14 -5,-13 -5,-12 -4,-12 -4,-10 -3,-9 -3,-8 -2,10 -4,11 -4,10 -4,12 -4,11 -5,10 -5,11 -5,10 -45,125z">
			</path>
		</svg>
	</g>
</svg>
