<svg xmlns="http://www.w3.org/2000/svg" viewBox="0 0 3998 1617">
	<g id="letter-o_1" transform="translate(0,0)" >
		<svg height="123" viewBox="0 0 999 999" width="117" preserveAspectRatio="none">
			<path style="fill:#ebebe1;stroke:#adad84;stroke-width:2" d="M139,77 l32,-32 656,0 32,32 0,796 -32,32 -656,0 -32,-32 0,-796z">
			</path>
			<path style="fill:#e1e1d1" d="M531,671 l156,-234 124,-376 32,32 0,766 -32,30 -624,0 -32,-30 376,-188z">
			</path>
			<path style="fill:#e1e1d1" d="M311,125 l-62,62 -62,218 -32,-30 0,-282 32,-32 280,0 32,32 -188,32z">
			</path>
			<path style="fill:none;stroke:#fff;stroke-width:2" d="M139,873 l0,-796 32,-32 656,0">
			</path>
			<path style="fill:#666" d="M290,502 l2,-33 4,-32 7,-30 10,-28 13,-25 20,-26 23,-21 25,-18 29,-14 26,-9 28,-6 18,-1 6,0 6,0 29,2 29,7 25,10 28,18 24,18 22,21 17,24 13,24 13,29 10,31 5,33 2,17 0,9 0,7 -4,31 -6,31 -9,30 -11,27 -18,27 -22,23 -23,18 -25,12 -26,10 -27,8 -33,6 -7,0 -6,0 -7,0 -31,-3 -31,-7 -30,-9 -26,-11 -22,-18 -19,-22 -16,-23 -11,-25 -10,-28 -8,-30 -4,-31 -2,-16 0,-7z">
			</path>
			<path style="fill:#ebebe1" d="M349,502 l2,29 4,29 9,34 15,28 20,21 26,16 30,13 30,6 8,1 7,0 9,0 34,-5 32,-11 27,-16 22,-19 17,-26 13,-33 7,-28 4,-29 0,-10 0,-7 -3,-35 -7,-30 -10,-27 -14,-24 -17,-22 -22,-19 -26,-12 -27,-10 -27,-5 -5,0 -7,0 -31,6 -30,11 -27,15 -22,19 -15,25 -11,26 -8,31 -5,28 -2,24 0,6 0,7 0,-7z">
			</path>
		</svg>
	</g>
</svg>
