<svg xmlns="http://www.w3.org/2000/svg" viewBox="0 0 3998 1617">
	<g id="letter-d_1" transform="translate(0,0)" >
		<svg height="123" viewBox="0 0 999 999" width="117" preserveAspectRatio="none">
			<path style="fill:#ebebe1;stroke:#adad84;stroke-width:2" d="M139,77 l32,-31 656,0 32,31 0,796 -32,32 -656,0 -32,-32 0,-796z">
			</path>
			<path style="fill:#e1e1d1" d="M531,671 l156,-234 124,-376 32,32 0,766 -32,30 -624,0 -32,-30 376,-188z">
			</path>
			<path style="fill:#e1e1d1" d="M311,125 l-62,62 -62,218 -32,-30 0,-282 32,-32 280,0 32,32 -188,32z">
			</path>
			<path style="fill:none;stroke:#fff;stroke-width:2" d="M139,873 l0,-796 32,-31 656,0">
			</path>
			<path style="fill:#666" d="M323,725 l0,-460 158,0 6,0 30,2 29,4 28,6 28,15 23,19 23,18 19,24 15,26 11,30 6,28 4,29 1,15 0,7 0,7 -1,31 -5,29 -6,27 -9,30 -13,25 -19,24 -20,22 -24,19 -28,13 -31,4 -32,4 -19,2 -5,0 -5,0 -164,0z">
			</path>
			<path style="fill:#ebebe1" d="M382,673 l99,0 5,0 5,0 31,-3 28,-4 28,-9 22,-19 17,-23 14,-24 7,-30 5,-29 2,-24 0,-6 0,-7 -2,-33 -6,-30 -9,-26 -12,-27 -17,-22 -24,-19 -25,-11 -28,-6 -29,-3 -6,0 -6,0 -99,0 0,355z">
			</path>
		</svg>
	</g>
</svg>
