<svg xmlns="http://www.w3.org/2000/svg" viewBox="0 0 3998 1617">
	<g id="letter-s_1" transform="translate(0,0)" >
		<svg height="123" viewBox="0 0 999 999" width="117" preserveAspectRatio="none">
			<path style="fill:#ebebe1;stroke:#adad84;stroke-width:2" d="M140,77 l31,-31 656,0 31,31 0,796 -31,32 -656,0 -31,-32 0,-796z">
			</path>
			<path style="fill:#e1e1d1" d="M530,671 l156,-234 125,-375 31,31 0,765 -31,31 -624,0 -32,-31 375,-187z">
			</path>
			<path style="fill:#e1e1d1" d="M312,124 l-63,63 -62,218 -31,-31 0,-281 31,-31 281,0 31,31 -187,31z">
			</path>
			<path style="fill:none;stroke:#fff;stroke-width:2" d="M140,873 l0,-796 31,-31 656,0">
			</path>
			<path style="fill:#666" d="M323,567 l59,0 4,35 9,25 23,22 23,17 34,9 28,4 34,-2 30,-4 6,0 27,-19 17,-24 8,-30 -8,-26 -22,-25 -28,-8 -34,-10 -39,-10 -29,-9 -27,-9 -26,-9 -25,-15 -24,-19 -14,-30 -6,-32 2,-37 8,-31 21,-27 23,-17 28,-12 27,-9 28,-5 11,-1 5,0 4,0 32,2 27,7 27,10 27,17 21,19 21,27 11,27 5,29 -59,0 -7,-27 -21,-27 -27,-19 -32,-10 -36,-2 -32,4 -29,15 -18,26 -8,27 6,27 21,22 26,11 28,8 32,7 32,9 28,9 28,11 29,13 27,22 18,30 6,28 1,9 0,10 0,8 -7,34 -12,24 -20,22 -27,17 -29,12 -27,9 -28,5 -11,1 -5,0 -5,0 -34,-2 -32,-4 -27,-6 -24,-12 -27,-22 -20,-26 -12,-27 -9,-29 -5,-24 0,-7 0,-6z">
			</path>
		</svg>
	</g>
</svg>
