<svg xmlns="http://www.w3.org/2000/svg" viewBox="0 0 3998 1617">
	<g id="letter-r_1" transform="translate(0,0)" >
		<svg height="123" viewBox="0 0 999 999" width="117" preserveAspectRatio="none">
			<path style="fill:#ebebe1;stroke:#adad84;stroke-width:2" d="M139,77 l32,-32 656,0 32,32 0,796 -32,32 -656,0 -32,-32 0,-796z">
			</path>
			<path style="fill:#e1e1d1" d="M531,671 l156,-234 124,-376 32,32 0,766 -32,30 -624,0 -32,-30 376,-188z">
			</path>
			<path style="fill:#e1e1d1" d="M311,125 l-62,62 -62,218 -32,-30 0,-282 32,-32 280,0 32,32 -188,32z">
			</path>
			<path style="fill:none;stroke:#fff;stroke-width:2" d="M139,873 l0,-796 32,-32 656,0">
			</path>
			<path style="fill:#666" d="M323,725 l0,-460 197,0 7,0 34,3 29,4 30,9 24,19 18,21 13,24 8,27 1,30 -7,31 -12,26 -22,24 -27,17 -27,10 -29,5 -7,0 23,17 21,21 18,24 17,23 79,125 -66,0 -59,-92 -17,-26 -18,-22 -21,-21 -20,-22 -3,0 -24,-13 -30,-7 -5,-1 -66,0 0,204 -59,0z">
			</path>
			<path style="fill:#ebebe1" d="M382,469 l125,0 5,0 5,0 10,-1 9,-1 13,-2 12,-2 9,-1 11,-1 8,-3 9,-6 7,-6 6,-7 5,-10 4,-10 4,-10 1,-7 0,-3 0,-2 -1,-11 -3,-11 -6,-10 -6,-10 -8,-8 -8,-8 -12,-7 -9,-4 -10,-4 -12,-3 -12,-2 -12,-1 -6,0 -138,0 0,151z">
			</path>
		</svg>
	</g>
</svg>
