<svg xmlns="http://www.w3.org/2000/svg" viewBox="0 0 3998 1617">
	<g id="factory_1" transform="translate(0,0)" >
		<svg height="233" viewBox="0 0 998 699" width="275" preserveAspectRatio="none">
			<path style="fill:#999;stroke:#000;stroke-width:2" d="M321,521 l18,-321 35,0 18,321 -71,0z">
			</path>
			<path style="fill:#999;stroke:#000;stroke-width:2" d="M232,521 l18,-321 35,0 18,321 -71,0z">
			</path>
			<path style="fill:#999;stroke:#000;stroke-width:2" d="M142,521 l18,-321 36,0 17,321 -71,0z">
			</path>
			<path style="fill:#b2b2b2" d="M330,521 l13,-317 27,0 13,317 -53,0z">
			</path>
			<path style="fill:#b2b2b2" d="M241,521 l13,-317 27,0 13,317 -53,0z">
			</path>
			<path style="fill:#b2b2b2" d="M151,521 l14,-317 26,0 14,317 -54,0z">
			</path>
			<path style="fill:#ccc" d="M347,521 l5,-317 9,0 4,317 -18,0z">
			</path>
			<path style="fill:#ccc" d="M258,521 l5,-317 9,0 4,317 -18,0z">
			</path>
			<path style="fill:#ccc" d="M169,521 l4,-317 9,0 5,317 -18,0z">
			</path>
			<path style="fill:#666;stroke:#000;stroke-width:2" d="M245,200 l0,-9 44,0 0,9 -44,0z">
			</path>
			<path style="fill:#666;stroke:#000;stroke-width:2" d="M334,200 l0,-9 44,0 0,9 -44,0z">
			</path>
			<path style="fill:#666;stroke:#000;stroke-width:2" d="M156,200 l0,-9 44,0 0,9 -44,0z">
			</path>
			<path style="fill:#666;stroke:#000;stroke-width:2" d="M71,681 l927,0 0,-232 -927,0 0,232z">
			</path>
			<path style="fill:#999;stroke:#000;stroke-width:2" d="M0,521 l642,0 0,178 -642,0 0,-178z">
			</path>
			<path style="fill:#333;stroke:#000;stroke-width:2" d="M463,628 l36,0 0,71 -36,0 0,-71z">
			</path>
			<path style="fill:#b2b2b2;stroke:#000;stroke-width:2" d="M642,637 l334,0 0,-22 -334,0 0,22z">
			</path>
			<path style="fill:#000;stroke:#000;stroke-width:2" d="M642,601 l334,0 0,14 -334,0 0,-14z">
			</path>
			<path style="fill:#000;stroke:#000;stroke-width:2" d="M13,539 l615,0 0,13 -615,0 0,-13z">
			</path>
			<path style="fill:#ccc;stroke:#000;stroke-width:2" d="M13,552 l68,0 0,22 -68,0 0,-22z">
			</path>
			<path style="fill:#ccc;stroke:#000;stroke-width:2" d="M81,552 l69,0 0,22 -69,0 0,-22z">
			</path>
			<path style="fill:#ccc;stroke:#000;stroke-width:2" d="M150,552 l68,0 0,22 -68,0 0,-22z">
			</path>
			<path style="fill:#ccc;stroke:#000;stroke-width:2" d="M218,552 l68,0 0,22 -68,0 0,-22z">
			</path>
			<path style="fill:#ccc;stroke:#000;stroke-width:2" d="M286,552 l69,0 0,22 -69,0 0,-22z">
			</path>
			<path style="fill:#ccc;stroke:#000;stroke-width:2" d="M355,552 l68,0 0,22 -68,0 0,-22z">
			</path>
			<path style="fill:#ccc;stroke:#000;stroke-width:2" d="M423,552 l69,0 0,22 -69,0 0,-22z">
			</path>
			<path style="fill:#ccc;stroke:#000;stroke-width:2" d="M492,552 l68,0 0,22 -68,0 0,-22z">
			</path>
			<path style="fill:#ccc;stroke:#000;stroke-width:2" d="M560,552 l68,0 0,22 -68,0 0,-22z">
			</path>
			<path style="fill:#e5e5e5;stroke:#7f7f7f;stroke-width:2" d="M370,177 l12,-30 10,-23 31,-7 29,-9 16,-7 30,2 32,1 28,-6 26,-8 21,-19 5,-9 32,-3 20,-8 3,-4 0,-3 -1,-3 -32,-7 -31,-1 -30,-2 -5,-6 -1,-14 -2,-1 -2,0 -2,1 -29,-3 -29,2 -29,3 -34,-2 -31,1 -27,7 -25,9 -28,-8 -24,-16 -28,-3 -8,-1 -7,0 -5,0 -29,13 -20,28 -14,16 -2,0 -8,-1 -4,2 -15,26 3,31 -4,18 -1,4 0,4 9,34 0,2 1,1 1,1 2,0 2,0 8,-1 9,-27 9,-18 -1,-8 12,-24 7,-4 2,0 26,24 10,23 -4,34 26,-2 7,-28 22,-24 9,-18 3,-2 3,0 20,13 -2,32 5,28 23,0z">
			</path>
			<path style="fill:#b2b2b2" d="M365,173 l12,-30 11,-23 5,1 25,-17 5,-7 32,-1 30,1 29,-3 35,-9 15,-7 3,-13 3,-3 29,-2 20,-6 2,-3 0,-3 -1,-2 -1,-2 -34,-4 -32,5 -21,3 -2,-1 -3,-6 -30,-15 -28,-5 -27,8 -31,2 -30,-3 -31,6 -29,6 -5,-1 -12,2 -16,-23 -4,-1 -6,1 -17,6 -28,4 -24,20 -17,15 -6,-1 -3,1 -14,23 2,28 -4,13 0,3 0,3 7,28 0,2 1,1 1,1 10,-1 9,-26 1,-18 16,-24 23,-17 4,1 2,3 0,1 -6,8 0,7 21,24 5,7 1,7 -2,28 16,4 2,-1 6,-29 1,-6 18,-26 4,-9 27,0 4,2 10,14 -1,33 4,22 12,4 2,0z">
			</path>
		</svg>
	</g>
</svg>
