<svg xmlns="http://www.w3.org/2000/svg" viewBox="0 0 3998 1617">
	<g id="plant_1" transform="translate(0,0)" >
		<svg height="233" viewBox="0 0 999 586" width="275" preserveAspectRatio="none">
			<path style="fill:#999;stroke:#000;stroke-width:2" d="M252,334 l165,-82 0,-165 -165,82 0,165z">
			</path>
			<path style="fill:#e5e5e5;stroke:#000;stroke-width:2" d="M4,169 l165,-82 248,0 -165,82 -248,0z">
			</path>
			<path style="fill:#e5e5e5;stroke:#000;stroke-width:2" d="M252,252 l82,-41 247,0 -82,41 -247,0z">
			</path>
			<path style="fill:#e5e5e5;stroke:#000;stroke-width:2" d="M252,334 l165,-82 577,0 -165,82 -577,0z">
			</path>
			<path style="fill:#ccc;stroke:#000;stroke-width:2" d="M4,581 l0,-412 248,0 0,83 247,0 0,82 330,0 0,247 -825,0z">
			</path>
			<path style="fill:none;stroke:#000;stroke-width:2" d="M128,513 l0,68">
			</path>
			<path style="fill:#999;stroke:#000;stroke-width:2" d="M829,581 l165,-82 0,-247 -165,82 0,247z">
			</path>
			<path style="fill:#999;stroke:#000;stroke-width:2" d="M499,334 l82,-41 0,-82 -82,41 0,82z">
			</path>
			<path style="fill:#999;stroke:#000;stroke-width:2" d="M499,417 l0,-42 309,0 0,42 -309,0z">
			</path>
			<path style="fill:#999;stroke:#000;stroke-width:2" d="M87,581 l0,-68 82,0 0,68 -82,0z">
			</path>
			<path style="fill:#999;stroke:#000;stroke-width:2" d="M46,417 l0,-46 60,0 0,46 -60,0z">
			</path>
			<path style="fill:#999;stroke:#000;stroke-width:2" d="M122,417 l0,-46 60,0 0,46 -60,0z">
			</path>
			<path style="fill:#999;stroke:#000;stroke-width:2" d="M197,417 l0,-46 61,0 0,46 -61,0z">
			</path>
			<path style="fill:#999;stroke:#000;stroke-width:2" d="M273,417 l0,-46 61,0 0,46 -61,0z">
			</path>
			<path style="fill:#999;stroke:#000;stroke-width:2" d="M46,338 l0,-45 60,0 0,45 -60,0z">
			</path>
			<path style="fill:#999;stroke:#000;stroke-width:2" d="M122,338 l0,-45 60,0 0,45 -60,0z">
			</path>
			<path style="fill:#999;stroke:#000;stroke-width:2" d="M197,338 l0,-45 61,0 0,45 -61,0z">
			</path>
			<path style="fill:#999;stroke:#000;stroke-width:2" d="M273,338 l0,-45 61,0 0,45 -61,0z">
			</path>
			<path style="fill:#666;stroke:#000;stroke-width:2" d="M849,417 l0,-42 124,-65 0,42 -124,65z">
			</path>
			<path style="fill:#7f7f7f;stroke:#000;stroke-width:2" d="M780,293 l9,-289 36,0 9,289 -54,0z">
			</path>
			<path style="fill:#7f7f7f;stroke:#000;stroke-width:2" d="M664,293 l9,-289 36,0 9,289 -54,0z">
			</path>
			<path style="fill:#b2b2b2" d="M789,293 l6,-289 24,0 6,289 -36,0z">
			</path>
			<path style="fill:#b2b2b2" d="M673,293 l6,-289 24,0 6,289 -36,0z">
			</path>
			<path style="fill:#e5e5e5" d="M802,293 l2,-289 6,0 2,289 -10,0z">
			</path>
			<path style="fill:#e5e5e5" d="M686,293 l2,-289 6,0 2,289 -10,0z">
			</path>
		</svg>
	</g>
</svg>
