<svg xmlns="http://www.w3.org/2000/svg" viewBox="0 0 3998 1617">
	<g id="semisub_1" transform="translate(0,0)" >
		<svg height="233" viewBox="0 0 856 999" width="275" preserveAspectRatio="none">
			<path style="fill:#000" d="M742,819 l-117,0 0,132 4,5 13,5 20,4 22,0 22,0 20,-4 12,-5 4,-5 0,-132z">
			</path>
			<path style="fill:#000" d="M472,819 l-118,0 0,132 5,5 12,5 20,4 22,0 22,0 20,-4 12,-5 5,-5 0,-132z">
			</path>
			<path style="fill:#000" d="M3,845 l271,0 0,-11 -271,0 0,11z">
			</path>
			<path style="fill:#000" d="M237,834 l469,0 0,-15 -469,0 0,15z">
			</path>
			<path style="fill:#000;stroke:#000;stroke-width:2" d="M10,790 l0,-66 4,0 0,7 -4,0 0,59z">
			</path>
			<path style="fill:#000;stroke:#000;stroke-width:2" d="M245,761 l0,-66 -4,0 0,7 4,0 0,59z">
			</path>
			<path style="fill:#000;stroke:#000;stroke-width:2" d="M267,655 l0,-67 -4,1 0,7 4,0 0,59z">
			</path>
			<path style="fill:#000;stroke:#000;stroke-width:2" d="M420,622 l0,-66 -3,0 0,7 3,0 0,59z">
			</path>
			<path style="fill:#000;stroke:#000;stroke-width:2" d="M698,622 l0,-66 4,0 0,7 -4,0 0,59z">
			</path>
			<path style="fill:#000;stroke:#000;stroke-width:2" d="M724,691 l0,-66 4,0 0,8 -4,0 0,58z">
			</path>
			<path style="fill:#000;stroke:#000;stroke-width:2" d="M816,761 l0,-66 -4,0 0,7 4,0 0,59z">
			</path>
			<path style="fill:none;stroke:#000;stroke-width:2" d="M499,552 l45,-549 29,0 45,549 -112,-78 97,-69 -89,-54 89,0 -89,54 97,69 -112,78">
			</path>
			<path style="fill:none;stroke:#000;stroke-width:2" d="M544,3 l29,19 -29,25 29,25 -37,29 45,39 -53,39 60,0 -52,-39 45,-39 -37,-29 29,-25 -29,-25 29,-19">
			</path>
			<path style="fill:none;stroke:#000;stroke-width:2" d="M528,258 l60,-39">
			</path>
			<path style="fill:none;stroke:#000;stroke-width:2" d="M514,351 l82,-54 -68,-39">
			</path>
			<path style="fill:none;stroke:#000;stroke-width:2" d="M588,219 l-60,-40">
			</path>
			<path style="fill:none;stroke:#000;stroke-width:2" d="M588,179 l-60,40 60,39 -67,39 82,54">
			</path>
			<path style="fill:#ccc9bf;stroke:#000;stroke-width:2" d="M464,552 l191,0 0,70 -191,0 0,-70z">
			</path>
			<path style="fill:#000;stroke:#000;stroke-width:2" d="M267,655 l146,0 0,106 -146,0 0,-106z">
			</path>
			<path style="fill:#4c4c4c;stroke:#000;stroke-width:2" d="M179,834 l-117,0 0,131 4,6 12,5 20,3 22,1 22,-1 20,-3 13,-5 4,-6 0,-131z">
			</path>
			<path style="fill:#ccc7b2;stroke:#000;stroke-width:2" d="M413,622 l293,0 0,69 -293,0 0,-69z">
			</path>
			<path style="fill:#b2ad98;stroke:#000;stroke-width:2" d="M387,691 l344,0 0,70 -344,0 0,-70z">
			</path>
			<path style="fill:#4c4c4c" d="M354,717 l74,0 0,7 -74,0 0,-7z">
			</path>
			<path style="fill:#ccc;stroke:#000;stroke-width:2" d="M237,761 l586,0 0,58 -586,0 0,-58z">
			</path>
			<path style="fill:#333" d="M530,805 l-117,0 0,175 4,6 13,5 20,3 22,1 22,-1 20,-3 12,-5 4,-6 0,-175z">
			</path>
			<path style="fill:#7f7f7f" d="M526,805 l-109,0 0,181 13,5 20,3 22,1 22,-1 20,-3 12,-5 0,-181z">
			</path>
			<path style="fill:#b2b2b2" d="M514,805 l-84,0 0,186 20,3 22,1 22,-1 20,-3 0,-186z">
			</path>
			<path style="fill:#ccc" d="M494,805 l-44,0 0,189 22,1 22,-1 0,-189z">
			</path>
			<path style="fill:none;stroke:#000;stroke-width:2" d="M530,805 l-117,0 0,175 4,6 13,5 20,3 22,1 22,-1 20,-3 12,-5 4,-6 0,-175">
			</path>
			<path style="fill:#4c4c4c" d="M823,819 l-117,0 0,161 4,6 13,5 19,3 22,1 22,-1 20,-3 13,-5 4,-6 0,-161z">
			</path>
			<path style="fill:#999" d="M806,819 l-83,0 0,172 19,3 22,1 22,-1 20,-3 0,-172z">
			</path>
			<path style="fill:none;stroke:#000;stroke-width:2" d="M823,819 l-117,0 0,161 4,6 13,5 19,3 22,1 22,-1 20,-3 13,-5 4,-6 0,-161">
			</path>
			<path style="fill:#e5e5e5;stroke:#000;stroke-width:2" d="M413,805 l117,0 -4,5 -12,5 -20,3 -22,1 -22,-1 -20,-3 -13,-5 -4,-5z">
			</path>
			<path style="fill:#b2b2b2;stroke:#000;stroke-width:2" d="M3,790 l234,0 0,44 -234,0 0,-44z">
			</path>
			<path style="fill:#e5e5e5;stroke:#000;stroke-width:2" d="M18,746 l205,0 0,-15 -205,0 0,15z">
			</path>
			<path style="fill:none;stroke:#fff;stroke-width:2" d="M18,731 l205,0">
			</path>
			<path style="fill:#999;stroke:#000;stroke-width:2" d="M47,790 l146,0 0,-44 -146,0 0,44z">
			</path>
			<path style="fill:#7f7f7f;stroke:#000;stroke-width:2" d="M311,739 l161,0 0,22 -161,0 0,-22z">
			</path>
			<path style="fill:#999;stroke:#000;stroke-width:2" d="M332,724 l118,0 0,15 -118,0 0,-15z">
			</path>
			<path style="fill:none;stroke:#fff;stroke-width:2" d="M237,731 l586,0">
			</path>
			<path style="fill:none;stroke:#fff;stroke-width:2" d="M237,746 l586,0">
			</path>
			<path style="fill:#000;stroke:#000;stroke-width:2" d="M311,717 l0,-44 43,-44 88,0 0,88 -131,0z">
			</path>
			<path style="fill:#e5e5e5" d="M318,673 l36,-37 15,0 -15,37 -36,0z">
			</path>
			<path style="fill:none;stroke:#fff;stroke-width:2" d="M662,658 l29,29">
			</path>
			<path style="fill:none;stroke:#fff;stroke-width:2" d="M592,651 l41,40 29,-33">
			</path>
			<path style="fill:none;stroke:#fff;stroke-width:2" d="M691,687 l30,-29">
			</path>
			<path style="fill:none;stroke:#fff;stroke-width:2" d="M721,687 l-30,-29 -29,29 -29,-32 -41,40">
			</path>
			<path style="fill:#c00" d="M398,655 l33,0 0,47 -33,0 0,-47z">
			</path>
			<path style="fill:#4c4c4c" d="M472,570 l175,0 0,15 -175,0 0,-15z">
			</path>
			<path style="fill:#4c4c4c" d="M618,640 l73,0 0,15 -73,0 0,-15z">
			</path>
			<path style="fill:#000" d="M468,490 l7,0 0,62 -7,0 0,-62z">
			</path>
			<path style="fill:none;stroke:#000;stroke-width:2" d="M472,490 l0,-66">
			</path>
		</svg>
	</g>
</svg>
