<svg xmlns="http://www.w3.org/2000/svg" viewBox="0 0 3998 1617">
	<g id="truck_1" transform="translate(0,0)" >
		<svg height="133" viewBox="0 0 500 141" width="523" preserveAspectRatio="none">
			<path style="fill:#f00;stroke:#000;stroke-width:2" d="M72,53 l15,0 0,-10 0,-1 1,-2 0,-1 1,-1 1,-2 1,0 1,-1 2,-1 0,6 -1,0 -1,1 0,1 -1,1 0,10 21,0 0,-46 -1,1 -2,1 -1,1 -36,43z">
			</path>
			<path style="fill:#f00;stroke:#000;stroke-width:2" d="M87,105 l0,-7 -1,0 0,-34 1,0 0,-9 -18,0 0,-2 -2,0 0,-1 -4,0 0,2 -3,1 -5,2 7,1 -4,16 4,0 3,-13 15,0 0,13 -22,0 -8,1 -9,1 -9,2 -10,2 -10,3 -9,3 0,27 17,3 0,-2 1,-2 0,-1 3,-4 4,-4 3,-2 1,0 3,-2 10,0 4,2 1,0 4,3 3,4 3,5 0,1 1,2 3,0 0,12 1,0 0,-21 21,0 0,3 -21,0 0,3 21,0 0,8 3,0 0,-14 6,0 0,18 2,0 0,-18 13,0 0,18 2,0 0,-18 2,0 0,-49 -1,-2 -1,0 -2,-1 -19,0 0,9 2,0 0,34 -2,0 0,7 -4,0z">
			</path>
			<path style="fill:#e5e5e5;stroke:#000;stroke-width:2" d="M12,115 l-12,-2 0,12 12,2 0,-12z">
			</path>
			<ellipse cx="90" cy="69" rx="4" ry="35" style="fill:#e5e5e5;stroke:#000;stroke-width:2">
			</ellipse>
			<path style="fill:#e5e5e5;stroke:#000;stroke-width:2" d="M112,125 l0,-18 6,0 0,18 -6,0z">
			</path>
			<path style="fill:#e5e5e5;stroke:#000;stroke-width:2" d="M89,125 l0,-18 6,0 0,18 -6,0z">
			</path>
			<path style="fill:#e5e5e5;stroke:#000;stroke-width:2" d="M97,125 l0,-18 13,0 0,18 -13,0z">
			</path>
			<path style="fill:#e5e5e5;stroke:#000;stroke-width:2" d="M65,125 l0,-12 21,0 0,12 -21,0z">
			</path>
			<path style="fill:#e5e5e5;stroke:#000;stroke-width:2" d="M65,110 l0,-3 21,0 0,3 -21,0z">
			</path>
			<path style="fill:#4c4c4c;stroke:#000;stroke-width:2" d="M126,97 l0,-15 366,0 0,15 -366,0z">
			</path>
			<path style="fill:#000;stroke:#000;stroke-width:2" d="M176,102 l0,3 -2,1 -2,1 -2,2 -1,2 -2,2 -1,2 0,2 -1,-2 -1,-2 -1,-2 -2,-2 -2,-2 -1,-1 -2,-1 -3,-1 -2,-1 -2,0 -2,-1 -2,0 0,-2 31,2z">
			</path>
			<circle cx="441" cy="123" r="9" style="fill:#fff;stroke:#000;stroke-width:2">
			</circle>
			<circle cx="402" cy="123" r="9" style="fill:#fff;stroke:#000;stroke-width:2">
			</circle>
			<circle cx="186" cy="123" r="9" style="fill:#fff;stroke:#000;stroke-width:2">
			</circle>
			<circle cx="146" cy="123" r="9" style="fill:#fff;stroke:#000;stroke-width:2">
			</circle>
			<circle cx="40" cy="123" r="9" style="fill:#fff;stroke:#000;stroke-width:2">
			</circle>
			<path style="fill:#fff;stroke:#000;stroke-width:2" d="M126,82 l-4,-19 0,-9 -1,-10 0,-9 3,-19 2,-9 11,0 355,0 4,19 1,9 0,9 -1,19 -2,10 -2,9 -23,0 -343,0z">
			</path>
			<path style="fill:#fff;stroke:#000;stroke-width:2" d="M170,102 l0,-5 -19,0 0,3 19,2z">
			</path>
			<circle cx="40" cy="123" r="3" style="fill:#000;stroke:#000;stroke-width:2">
			</circle>
			<circle cx="146" cy="123" r="3" style="fill:#000;stroke:#000;stroke-width:2">
			</circle>
			<circle cx="186" cy="123" r="3" style="fill:#000;stroke:#000;stroke-width:2">
			</circle>
			<circle cx="441" cy="123" r="3" style="fill:#000;stroke:#000;stroke-width:2">
			</circle>
			<circle cx="402" cy="123" r="3" style="fill:#000;stroke:#000;stroke-width:2">
			</circle>
			<path style="fill:#fff;stroke:#000;stroke-width:2" d="M249,7 l118,0 0,75 -118,0 0,-75z">
			</path>
			<path style="fill:#7f7f7f;stroke:#000;stroke-width:2" d="M156,68 l344,0 0,13 -344,0 0,-13z">
			</path>
			<path style="fill:#7f7f7f;stroke:#000;stroke-width:2" d="M296,0 l25,0 0,3 -25,0 0,-3z">
			</path>
			<path style="fill:#000;stroke:#000;stroke-width:2" d="M330,109 l56,0 1,-2 4,-3 2,0 12,-2 4,2 2,0 10,10 0,1 10,-11 2,0 14,-1 2,0 8,6 5,0 0,25 2,0 0,-25 26,0 0,13 2,0 1,-25 -163,0 0,12z">
			</path>
			<path style="fill:#000;stroke:#000;stroke-width:2" d="M303,3 l11,0 0,4 -11,0 0,-4z">
			</path>
			<path style="fill:#000;stroke:#000;stroke-width:2" d="M239,64 l10,0 0,21 -10,0 0,-21z">
			</path>
			<path style="fill:#000;stroke:#000;stroke-width:2" d="M162,64 l11,0 0,21 -11,0 0,-21z">
			</path>
			<path style="fill:#000;stroke:#000;stroke-width:2" d="M315,64 l11,0 0,21 -11,0 0,-21z">
			</path>
			<path style="fill:#000;stroke:#000;stroke-width:2" d="M391,64 l11,0 0,21 -11,0 0,-21z">
			</path>
			<path style="fill:#000;stroke:#000;stroke-width:2" d="M468,64 l10,0 0,21 -10,0 0,-21z">
			</path>
			<path style="fill:#000;stroke:#000;stroke-width:2" d="M206,136 l1,0 0,-27 -6,0 2,2 1,1 1,2 1,3 0,19z">
			</path>
			<path style="fill:#000;stroke:#000;stroke-width:2" d="M121,122 l-3,0 0,-13 8,0 -1,2 -1,3 -1,3 -1,3 -1,2z">
			</path>
			<path style="fill:#000;stroke:#000;stroke-width:2" d="M134,103 l-1,0 -3,2 -1,2 -3,2 -1,2 -1,3 -1,3 -1,3 -1,2 0,2 3,0 0,-2 1,-3 0,-2 1,-2 1,-2 2,-2 1,-2 2,-2 2,-1 0,-3z">
			</path>
			<path style="fill:#000;stroke:#000;stroke-width:2" d="M450,123 l0,2 -2,3 0,1 -3,2 -2,0 -1,1 -3,0 -1,-1 -2,0 -3,-4 0,-1 -1,-2 0,-4 3,-4 1,-1 1,0 2,-1 4,0 2,1 1,0 3,4 1,1 0,3 9,0 0,-2 -1,-2 0,-2 -2,-4 -3,-3 -3,-3 -2,-1 -2,0 -2,-1 -5,0 -2,1 -2,0 -5,3 -3,3 -2,4 -1,2 0,2 -1,2 0,2 1,2 0,2 2,4 1,2 2,1 1,2 4,2 2,1 2,0 8,0 4,-2 5,-4 3,-5 0,-2 1,-2 0,-2 -9,0z">
			</path>
			<path style="fill:#000;stroke:#000;stroke-width:2" d="M411,123 l0,2 -1,1 0,1 -3,4 -1,1 -8,0 -3,-3 -2,-3 0,-5 2,-3 0,-1 3,-2 1,0 2,-1 1,0 2,1 1,0 4,3 1,1 0,1 1,2 0,1 8,0 0,-2 0,-2 -2,-4 -4,-5 -5,-3 -2,-1 -2,0 -8,0 -4,2 -1,2 -4,3 -2,3 0,2 -1,2 0,2 0,3 1,2 0,2 2,4 2,3 4,2 1,2 2,0 2,1 3,-1 4,1 2,-1 2,0 5,-4 4,-5 0,-2 1,-2 0,-4 -8,0z">
			</path>
			<path style="fill:#000;stroke:#000;stroke-width:2" d="M49,123 l0,4 -2,3 -1,0 -3,2 -5,0 -1,-1 -1,0 -2,-1 -1,-2 0,-1 -1,-1 0,-1 -1,-2 0,-2 1,-1 0,-1 3,-4 2,0 1,-1 5,0 1,1 1,0 3,2 0,2 1,1 0,3 9,0 0,-2 0,-2 -2,-4 -2,-4 -2,-1 -1,-2 -4,-2 -2,0 -2,-1 -4,0 -2,1 -2,0 -4,2 -2,1 -1,2 -2,1 -2,4 -1,2 0,2 0,6 1,2 0,2 2,4 2,1 1,2 4,2 2,1 2,0 2,1 2,0 2,-1 2,0 4,-2 4,-2 3,-5 2,-4 0,-4 -9,0z">
			</path>
			<path style="fill:#000;stroke:#000;stroke-width:2" d="M155,123 l0,3 -3,4 -1,1 -1,0 -2,1 -5,0 -4,-3 -2,-3 0,-5 3,-4 4,-3 4,0 4,3 3,3 0,3 9,0 0,-2 -1,-2 0,-2 -2,-4 -2,-1 -1,-2 -5,-3 -2,-1 -2,0 -9,0 -4,2 -1,2 -2,1 -3,5 -1,2 0,2 -1,2 1,3 0,4 2,4 3,3 5,3 2,1 2,1 2,0 4,0 2,-1 2,0 4,-3 3,-3 3,-5 0,-2 1,-2 0,-2 -9,0z">
			</path>
			<path style="fill:#000;stroke:#000;stroke-width:2" d="M195,123 l0,2 -3,4 -2,2 -2,0 -1,1 -3,0 -2,-1 -1,0 -3,-4 -1,-1 0,-6 3,-4 1,-1 1,0 1,-1 5,0 2,1 1,0 3,4 0,1 1,1 0,2 8,0 0,-2 0,-2 -2,-4 -2,-4 -3,-3 -4,-2 -2,0 -2,-1 -4,0 -2,1 -2,0 -4,2 -3,3 -2,1 -2,4 0,2 -1,2 0,2 0,4 2,4 2,4 3,3 3,2 2,1 2,0 9,0 4,-2 3,-2 3,-4 1,-1 0,-2 1,-2 0,-4 -8,0z">
			</path>
		</svg>
	</g>
</svg>
