<svg xmlns="http://www.w3.org/2000/svg" viewBox="0 0 3998 1617">
	<g id="pipe-curve-down-right" transform="translate(0,0)" >
		<svg height="144" viewBox="0 0 500 500" width="138" preserveAspectRatio="none">
			<path style="fill:#7f7f7f" d="M0,292 l0,208 250,0 0,-208 3,-16 9,-14 14,-9 16,-3 208,0 0,-250 -208,0 -30,2 -29,4 -28,7 -27,10 -25,12 -24,15 -23,17 -20,19 -19,20 -17,23 -15,24 -12,25 -10,27 -7,28 -4,29 -2,30z">
			</path>
			<path style="fill:#999" d="M292,16 l-28,1 -27,5 -27,6 -25,10 -24,11 -23,14 -21,16 -20,18 -18,19 -16,21 -14,23 -11,24 -10,26 -6,26 -5,28 -1,28 0,208 219,0 0,-208 4,-23 13,-18 18,-12 22,-5 208,0 0,-218 -208,0z">
			</path>
			<path style="fill:#b2b2b2" d="M292,42 l208,0 0,166 -208,0 -17,2 -15,5 -14,7 -13,11 -10,12 -7,14 -5,16 -2,17 0,208 -167,0 0,-208 1,-26 4,-24 6,-24 9,-23 10,-22 13,-21 14,-19 16,-18 18,-16 19,-14 21,-13 22,-10 23,-9 24,-6 24,-4 26,-1z">
			</path>
			<path style="fill:#ccc" d="M292,68 l-23,1 -22,4 -22,5 -20,8 -20,9 -18,11 -18,13 -15,14 -15,16 -13,18 -11,18 -9,20 -8,20 -5,22 -4,22 -1,23 0,208 115,0 0,-208 2,-22 7,-21 10,-19 13,-16 16,-13 19,-10 20,-7 22,-2 208,0 0,-114 -208,0z">
			</path>
			<path style="fill:#e5e5e5" d="M292,89 l208,0 0,73 -208,0 -26,3 -25,7 -22,12 -19,16 -16,19 -12,22 -7,25 -3,26 0,208 -73,0 0,-208 1,-21 3,-20 5,-19 7,-19 9,-18 10,-16 11,-16 14,-15 14,-13 16,-11 16,-10 18,-9 19,-7 19,-5 20,-3 21,-1z">
			</path>
			<path style="fill:#fff" d="M292,109 l-19,1 -18,3 -17,4 -17,6 -16,8 -15,9 -14,11 -13,12 -12,13 -10,14 -9,15 -8,16 -6,17 -4,17 -3,18 -1,19 0,208 31,0 0,-208 3,-31 9,-28 14,-26 18,-22 23,-18 25,-14 29,-9 30,-3 208,0 0,-32 -208,0z">
			</path>
			<path style="fill:none;stroke:#000;stroke-width:2" d="M500,0 l-208,0 -30,2 -29,4 -28,7 -27,10 -25,12 -24,15 -23,17 -20,19 -19,20 -17,23 -15,24 -12,25 -10,27 -7,28 -4,29 -2,30 0,208">
			</path>
			<path style="fill:none;stroke:#000;stroke-width:2" d="M250,500 l0,-208 1,-8 2,-8 4,-7 5,-7 7,-5 7,-4 8,-2 8,-1 208,0">
			</path>
		</svg>
	</g>
</svg>
