<svg xmlns="http://www.w3.org/2000/svg" viewBox="0 0 3998 1617">
	<g id="pipe-curve-up" transform="translate(0,0)" >
		<svg height="112" viewBox="0 0 500 250" width="224" preserveAspectRatio="none">
			<path style="fill:#7f7f7f" d="M500,0 l-1,26 -4,24 -6,24 -9,23 -10,22 -13,21 -14,19 -16,18 -18,16 -19,14 -21,13 -22,10 -23,9 -24,6 -24,4 -26,1 -25,-1 -25,-4 -24,-6 -23,-9 -22,-10 -20,-13 -20,-14 -17,-16 -17,-18 -14,-19 -13,-21 -10,-22 -9,-23 -6,-24 -4,-24 -1,-26 214,0 3,14 8,11 11,8 14,3 14,-3 12,-8 8,-11 3,-14 213,0z">
			</path>
			<path style="fill:#999" d="M487,0 l-1,24 -4,24 -6,22 -8,22 -10,21 -11,19 -14,18 -15,17 -17,16 -18,13 -20,12 -21,10 -21,8 -23,6 -24,4 -24,1 -24,-1 -24,-4 -22,-6 -22,-8 -21,-10 -19,-12 -18,-13 -17,-16 -16,-17 -13,-18 -12,-19 -10,-21 -8,-22 -6,-22 -4,-24 -1,-24 188,0 4,19 10,16 16,10 19,4 20,-4 16,-10 10,-16 4,-19 187,0z">
			</path>
			<path style="fill:#b2b2b2" d="M34,0 l146,0 1,14 5,13 6,12 9,11 10,8 12,7 13,4 14,1 14,-1 14,-4 12,-7 10,-8 9,-11 6,-12 5,-13 1,-14 145,0 -1,22 -3,21 -6,21 -7,20 -9,19 -11,18 -12,16 -14,16 -16,14 -16,12 -18,11 -19,9 -20,7 -21,6 -21,3 -22,1 -22,-1 -21,-3 -21,-6 -20,-7 -19,-9 -18,-11 -16,-12 -16,-14 -14,-16 -12,-16 -11,-18 -9,-19 -7,-20 -6,-21 -3,-21 -1,-22z">
			</path>
			<path style="fill:#ccc" d="M443,0 l-1,20 -3,19 -5,18 -6,18 -8,17 -10,16 -11,15 -13,13 -13,13 -15,11 -16,10 -17,8 -18,6 -18,5 -19,3 -20,1 -20,-1 -19,-3 -18,-5 -18,-6 -17,-8 -15,-10 -15,-11 -14,-13 -12,-13 -11,-15 -10,-16 -8,-17 -6,-18 -5,-18 -3,-19 -1,-20 99,0 2,19 5,17 9,16 11,14 14,12 16,8 17,6 19,2 19,-2 18,-6 16,-8 14,-12 11,-14 9,-16 5,-17 2,-19 99,0z">
			</path>
			<path style="fill:#e5e5e5" d="M425,0 l-63,0 -2,23 -7,21 -10,19 -14,16 -16,14 -19,10 -21,7 -23,2 -22,-2 -21,-7 -19,-10 -17,-14 -14,-16 -10,-19 -7,-21 -2,-23 -62,0 1,18 3,17 4,17 6,16 7,15 9,14 10,14 11,12 12,11 14,10 14,9 15,7 16,6 17,4 17,3 18,1 18,-1 17,-3 17,-4 16,-6 15,-7 15,-9 13,-10 13,-11 11,-12 10,-14 9,-14 7,-15 6,-16 4,-17 3,-17 1,-18z">
			</path>
			<path style="fill:#fff" d="M406,0 l-26,0 -3,26 -7,25 -12,22 -16,19 -19,16 -22,12 -25,7 -26,3 -26,-3 -24,-7 -22,-12 -20,-16 -16,-19 -12,-22 -7,-25 -3,-26 -26,0 3,31 9,30 15,26 19,23 23,19 26,15 30,9 31,3 31,-3 30,-9 26,-15 23,-19 19,-23 15,-26 9,-30 3,-31z">
			</path>
			<path style="fill:none;stroke:#000;stroke-width:2" d="M214,0 l1,7 2,7 3,6 5,5 5,5 6,3 7,2 7,1 7,-1 7,-2 6,-3 6,-5 5,-5 3,-6 2,-7 1,-7">
			</path>
			<path style="fill:none;stroke:#000;stroke-width:2" d="M500,0 l-1,26 -4,24 -6,24 -9,23 -10,22 -13,21 -14,19 -16,18 -18,16 -19,14 -21,13 -22,10 -23,9 -24,6 -24,4 -26,1 -25,-1 -25,-4 -24,-6 -23,-9 -22,-10 -20,-13 -20,-14 -17,-16 -17,-18 -14,-19 -13,-21 -10,-22 -9,-23 -6,-24 -4,-24 -1,-26">
			</path>
		</svg>
	</g>
</svg>
