<svg xmlns="http://www.w3.org/2000/svg" viewBox="0 0 3998 1617">
	<g id="pipe-curve-up-right" transform="translate(0,0)" >
		<svg height="162" viewBox="0 0 500 500" width="179" preserveAspectRatio="none">
			<path style="fill:#7f7f7f" d="M292,500 l208,0 0,-250 -208,0 -16,-3 -14,-9 -9,-14 -3,-16 0,-208 -250,0 0,208 2,30 4,29 7,28 10,27 12,25 15,24 17,23 19,20 20,19 23,17 24,15 25,12 27,10 28,7 29,4 30,2z">
			</path>
			<path style="fill:#999" d="M16,208 l1,28 5,28 6,26 10,26 11,24 14,23 16,21 18,19 19,18 21,16 23,14 24,11 26,10 26,6 28,5 28,1 208,0 0,-218 -208,0 -23,-5 -18,-12 -12,-18 -5,-23 0,-208 -218,0 0,208z">
			</path>
			<path style="fill:#b2b2b2" d="M42,208 l0,-208 166,0 0,208 2,17 5,16 7,14 11,12 12,11 14,7 16,5 17,2 208,0 0,166 -208,0 -26,-1 -24,-4 -24,-6 -23,-9 -22,-10 -21,-13 -19,-14 -18,-16 -16,-18 -14,-19 -13,-21 -10,-22 -9,-23 -6,-24 -4,-24 -1,-26z">
			</path>
			<path style="fill:#ccc" d="M68,208 l1,23 4,22 5,22 8,20 9,20 11,18 13,18 15,15 15,15 18,13 18,11 20,9 20,8 22,5 22,4 23,1 208,0 0,-114 -208,0 -22,-2 -21,-7 -19,-10 -16,-13 -13,-16 -10,-19 -7,-21 -2,-22 0,-208 -114,0 0,208z">
			</path>
			<path style="fill:#e5e5e5" d="M89,208 l0,-208 73,0 0,208 3,26 7,25 12,22 16,19 19,17 22,12 25,7 26,3 208,0 0,73 -208,0 -21,-1 -20,-3 -19,-5 -19,-7 -18,-9 -16,-10 -16,-11 -14,-14 -14,-14 -11,-16 -10,-17 -9,-17 -7,-19 -5,-20 -3,-20 -1,-21z">
			</path>
			<path style="fill:#fff" d="M109,208 l1,19 3,18 4,17 6,17 8,16 9,15 11,14 12,13 13,12 14,11 15,9 16,8 17,6 17,4 18,3 19,1 208,0 0,-32 -208,0 -31,-3 -28,-9 -26,-14 -22,-18 -18,-22 -14,-26 -9,-28 -3,-31 0,-208 -32,0 0,208z">
			</path>
			<path style="fill:none;stroke:#000;stroke-width:2" d="M0,0 l0,208 2,30 4,29 7,28 10,27 12,25 15,24 17,23 19,20 20,19 23,17 24,15 25,12 27,10 28,7 29,4 30,2 208,0">
			</path>
			<path style="fill:none;stroke:#000;stroke-width:2" d="M500,250 l-208,0 -8,-1 -8,-2 -7,-4 -7,-5 -5,-7 -4,-7 -2,-8 -1,-8 0,-208">
			</path>
		</svg>
	</g>
</svg>
