<svg xmlns="http://www.w3.org/2000/svg" viewBox="0 0 3998 1617">
	<g id="gear_1" transform="translate(0,0)" >
		<svg height="123" viewBox="0 0 248 248" width="117" preserveAspectRatio="none">
			<path style="fill:#c0c0c0;stroke:#000;stroke-width:2" d="M143,35 l8,2 9,3 8,4 7,5 20,-27 5,4 5,3 4,4 4,5 4,4 4,5 4,5 3,5 -27,17 4,8 4,8 3,8 1,9 33,-5 1,6 1,6 0,6 0,12 -1,6 -1,6 -1,6 -32,-7 -2,8 -3,9 -4,8 -5,7 27,20 -4,5 -3,5 -4,4 -5,4 -4,4 -5,4 -5,4 -5,3 -17,-27 -8,4 -8,4 -8,3 -9,1 5,33 -6,1 -6,1 -6,0 -12,0 -6,-1 -6,-1 -6,-1 7,-31 -8,-3 -9,-3 -8,-4 -7,-5 -20,27 -5,-4 -5,-3 -4,-4 -4,-5 -4,-4 -4,-5 -4,-5 -3,-5 27,-17 -4,-8 -4,-8 -3,-8 -1,-9 -33,5 -1,-6 -1,-6 0,-6 0,-12 1,-6 1,-6 1,-6 32,7 2,-8 3,-9 4,-8 5,-7 -27,-20 4,-5 3,-5 4,-4 5,-4 4,-4 5,-4 5,-4 5,-3 17,27 8,-4 8,-4 8,-3 9,-1 -5,-33 6,-1 6,-1 6,0 12,0 6,1 6,1 6,1 -7,32z">
			</path>
			<circle cx="123" cy="125" r="21" style="fill:#c0c0c0;stroke:#000;stroke-width:2">
			</circle>
		</svg>
	</g>
</svg>
