<svg xmlns="http://www.w3.org/2000/svg" viewBox="0 0 3998 1617">
	<g id="flask_1" transform="translate(0,0)" >
		<svg height="163" viewBox="0 0 727 999" width="117" preserveAspectRatio="none">
			<path style="fill:#7f7f7f" d="M671,992 l-22,7 -569,0 -24,-7 -20,-11 -19,-18 -11,-21 -6,-21 0,-25 6,-23 222,-646 0,-182 -23,0 0,-45 318,0 0,45 -24,0 0,182 222,646 6,23 0,25 -6,21 -12,21 -18,18 -20,11z">
			</path>
			<path style="fill:#b2b2b2" d="M651,969 l-20,8 -533,0 -22,-8 -20,-10 -16,-18 -10,-20 -6,-22 0,-24 6,-22 220,-632 0,-178 227,0 0,178 222,632 6,22 0,24 -6,22 -12,20 -16,18 -20,10z">
			</path>
			<path style="fill:#b2b2b2" d="M215,11 l296,0 0,23 -296,0 0,-23z">
			</path>
			<path style="fill:#ccc" d="M643,959 l-22,5 -516,0 -19,-5 -20,-13 -14,-15 -12,-21 -6,-21 0,-24 6,-22 221,-624 0,-176 204,0 0,176 222,624 6,22 0,24 -6,21 -10,21 -16,15 -18,13z">
			</path>
			<path style="fill:#e5e5e5" d="M623,946 l-20,7 -480,0 -19,-7 -16,-9 -16,-16 -10,-21 -4,-21 0,-24 4,-22 207,-616 0,-174 190,0 0,174 206,616 6,22 0,24 -6,21 -10,21 -14,16 -18,9z">
			</path>
			<path style="fill:#ccc" d="M273,215 l182,0 0,12 -182,0 0,-12z">
			</path>
			<path style="fill:#fff" d="M421,271 l34,0 170,546 -34,0 -170,-546z">
			</path>
			<path style="fill:none;stroke:#fff;stroke-width:2" d="M273,909 l182,0">
			</path>
			<path style="fill:none;stroke:#fff;stroke-width:2" d="M273,863 l182,0">
			</path>
			<path style="fill:none;stroke:#fff;stroke-width:2" d="M273,817 l182,0">
			</path>
			<path style="fill:none;stroke:#fff;stroke-width:2" d="M273,773 l182,0">
			</path>
			<path style="fill:none;stroke:#fff;stroke-width:2" d="M273,727 l182,0">
			</path>
			<path style="fill:none;stroke:#fff;stroke-width:2" d="M273,681 l182,0">
			</path>
			<path style="fill:none;stroke:#fff;stroke-width:2" d="M273,635 l182,0">
			</path>
			<path style="fill:none;stroke:#fff;stroke-width:2" d="M273,589 l182,0">
			</path>
			<path style="fill:none;stroke:#fff;stroke-width:2" d="M273,545 l182,0">
			</path>
			<path style="fill:none;stroke:#fff;stroke-width:2" d="M273,499 l182,0">
			</path>
			<path style="fill:none;stroke:#fff;stroke-width:2" d="M273,453 l182,0">
			</path>
			<path style="fill:none;stroke:#fff;stroke-width:2" d="M273,409 l182,0">
			</path>
			<path style="fill:none;stroke:#fff;stroke-width:2" d="M273,361 l182,0">
			</path>
			<path style="fill:none;stroke:#fff;stroke-width:2" d="M273,317 l182,0">
			</path>
			<path style="fill:none;stroke:#fff;stroke-width:2" d="M273,273 l182,0">
			</path>
		</svg>
	</g>
</svg>
