<svg xmlns="http://www.w3.org/2000/svg" viewBox="0 0 3998 1617">
	<g id="derrick_1" transform="translate(0,0)" >
		<svg height="134" viewBox="0 0 214 250" width="117" preserveAspectRatio="none">
			<path style="fill:#c0c0c0;stroke:#000;stroke-width:2" d="M103,3 l0,173 -12,2 0,72 32,0 0,-72 -12,-2 0,-173 -8,0z">
			</path>
			<path style="fill:#c0c0c0;stroke:#000;stroke-width:2" d="M56,55 l15,-55 72,0 15,55 -11,0 -36,-47 4,0 28,35 -12,-35 -48,0 -12,35 28,-35 4,0 -36,47 -11,0z">
			</path>
			<path style="fill:#c0c0c0;stroke:#000;stroke-width:2" d="M33,135 l23,-80 102,0 23,80 -17,0 -51,-69 5,0 40,52 -17,-52 -68,0 -17,52 40,-52 5,0 -51,69 -17,0z">
			</path>
			<path style="fill:#c0c0c0;stroke:#000;stroke-width:2" d="M0,250 l33,-115 148,0 33,115 -25,0 -74,-99 8,0 58,74 -25,-74 -98,0 -25,74 57,-74 9,0 -74,99 -25,0z">
			</path>
		</svg>
	</g>
</svg>
