<?xml version="1.0" encoding="UTF-8" standalone="no"?>
<!DOCTYPE svg PUBLIC "-//W3C//DTD SVG 1.1//EN" "http://www.w3.org/Graphics/SVG/1.1/DTD/svg11.dtd">
<svg version="1.1" xmlns="http://www.w3.org/2000/svg" xmlns:xlink="http://www.w3.org/1999/xlink" preserveAspectRatio="xMidYMid meet" viewBox="0 0 640 640" width="320" height="320"><defs><path d="M187.25 60.4C193.86 60.4 199.21 65.75 199.21 72.35C199.21 123.23 199.21 263.9 199.21 314.78C199.21 321.38 193.86 326.73 187.25 326.73C157.37 326.73 79.66 326.73 49.78 326.73C43.17 326.73 37.82 321.38 37.82 314.78C37.82 263.9 37.82 123.23 37.82 72.35C37.82 65.75 43.17 60.4 49.78 60.4C79.66 60.4 157.37 60.4 187.25 60.4Z" id="a2UbC0T2sy"></path><path d="M199.48 71.45C199.48 85.76 163.32 97.39 118.78 97.39C74.25 97.39 38.09 85.76 38.09 71.45C38.09 57.13 74.25 45.5 118.78 45.5C163.32 45.5 199.48 57.13 199.48 71.45Z" id="d2D9awUsQ"></path><path d="M199.48 323.96L137.88 390.31L97.54 390.31L38.09 323.96" id="bRZNKiNjX"></path><path d="M199.48 320.79C199.48 333.47 163.32 343.76 118.78 343.76C74.25 343.76 38.09 333.47 38.09 320.79C38.09 308.11 74.25 297.82 118.78 297.82C163.32 297.82 199.48 308.11 199.48 320.79Z" id="a3T8zREfM"></path><path d="M42.05 457.43L42.05 311.88" id="cFvuXDx3z"></path><path d="M195.52 457.43L195.52 311.88" id="d2ojnP8ckY"></path></defs><g><g><g><use xlink:href="#a2UbC0T2sy" opacity="1" fill="#b9b8b8" fill-opacity="1"></use></g><g><use xlink:href="#d2D9awUsQ" opacity="1" fill="#c3c3c3" fill-opacity="1"></use></g><g><use xlink:href="#bRZNKiNjX" opacity="1" fill="#787878" fill-opacity="1"></use></g><g><use xlink:href="#a3T8zREfM" opacity="1" fill="#ababab" fill-opacity="1"></use></g><g><use xlink:href="#cFvuXDx3z" opacity="1" fill="#080000" fill-opacity="1"></use><g><use xlink:href="#cFvuXDx3z" opacity="1" fill-opacity="0" stroke="#959595" stroke-width="8" stroke-opacity="1"></use></g></g><g><use xlink:href="#d2ojnP8ckY" opacity="1" fill="#a15151" fill-opacity="1"></use><g><use xlink:href="#d2ojnP8ckY" opacity="1" fill-opacity="0" stroke="#959595" stroke-width="8" stroke-opacity="1"></use></g></g></g></g></svg>