<svg xmlns="http://www.w3.org/2000/svg" viewBox="0 0 3998 1617">
	<g id="vessel-vertical_1" transform="translate(0,0)" >
		<svg height="242" viewBox="0 0 393 498" width="195" preserveAspectRatio="none">
			<path style="fill:#c0c0c0;stroke:#000;stroke-width:2" d="M391,445 l0,-393 -18,-11 -10,-6 -11,-5 -11,-4 -11,-5 -12,-3 -13,-4 -13,-3 -13,-3 -13,-2 -14,-2 -14,-2 -14,-1 -14,-1 -14,0 -14,0 -15,1 -14,1 -14,2 -13,2 -14,2 -13,3 -13,3 -12,4 -12,3 -12,5 -21,9 -19,11 -9,6 0,394 18,11 20,11 11,4 12,5 12,3 12,4 13,3 13,3 14,2 13,2 14,2 14,1 15,1 14,0 14,0 14,-1 14,-1 14,-2 14,-2 13,-2 13,-3 13,-4 13,-3 12,-4 11,-5 11,-4 11,-5 19,-11 9,-6z">
			</path>
			<path style="fill:none;stroke:#000;stroke-width:2" d="M0,445 l393,0">
			</path>
			<path style="fill:none;stroke:#000;stroke-width:2" d="M0,52 l393,0">
			</path>
		</svg>
	</g>
</svg>
