<svg xmlns="http://www.w3.org/2000/svg" viewBox="0 0 3998 1617">
	<g id="vessel-horizontal_1" transform="translate(0,0)" >
		<svg height="195" viewBox="0 0 498 393" width="242" preserveAspectRatio="none">
			<path style="fill:#c0c0c0;stroke:#000;stroke-width:2" d="M445,2 l-393,0 -11,18 -6,10 -5,11 -4,11 -5,11 -3,12 -4,13 -3,13 -3,13 -2,13 -2,14 -2,14 -1,14 -1,14 0,14 0,14 1,15 1,14 2,14 2,13 2,14 3,13 3,13 4,12 3,12 5,12 9,21 11,19 6,9 394,0 11,-18 11,-20 4,-11 5,-12 3,-12 4,-12 3,-13 3,-13 2,-14 2,-13 2,-14 1,-14 1,-15 0,-14 0,-14 -1,-14 -1,-14 -2,-14 -2,-14 -2,-13 -3,-13 -4,-13 -3,-13 -4,-12 -5,-11 -4,-11 -5,-11 -11,-19 -6,-9z">
			</path>
			<path style="fill:none;stroke:#000;stroke-width:2" d="M445,393 l0,-393">
			</path>
			<path style="fill:none;stroke:#000;stroke-width:2" d="M52,393 l0,-393">
			</path>
		</svg>
	</g>
</svg>
