<svg xmlns="http://www.w3.org/2000/svg" viewBox="0 0 3998 1617">
	<g id="heatexchanger_1" transform="translate(0,0)" >
		<svg height="195" viewBox="0 0 749 999" width="188" preserveAspectRatio="none">
			<path style="fill:#ccc;stroke:#000;stroke-width:2" d="M0,0 l749,0 0,999 -749,0 0,-999z">
			</path>
			<path style="fill:#999;stroke:#000;stroke-width:2" d="M698,881 l-44,-1 -42,-3 -38,-3 -33,-5 -28,-7 -28,-10 -9,-8 -1,-4 1,-4 26,-15 39,-10 33,-5 38,-4 42,-2 44,-1 0,-55 -15,0 -30,1 -29,2 -41,5 -38,6 -36,8 -31,10 -26,10 -28,17 -20,22 -3,10 0,5 0,5 13,24 23,17 32,15 30,10 34,9 37,7 40,5 29,2 29,2 15,0 15,0 51,0 0,-55 -51,0z">
			</path>
			<path style="fill:#999;stroke:#000;stroke-width:2" d="M50,881 l45,-1 42,-3 38,-3 34,-5 27,-7 29,-10 9,-8 2,-4 -2,-4 -26,-15 -39,-10 -34,-5 -38,-4 -42,-2 -45,-1 0,-55 15,0 30,1 30,2 42,5 39,6 35,8 31,10 27,10 27,17 20,22 4,10 0,5 0,5 -14,24 -22,17 -32,15 -30,10 -34,9 -38,7 -41,5 -29,2 -29,2 -16,0 -15,0 -50,0 0,-55 50,0z">
			</path>
			<path style="fill:#999;stroke:#000;stroke-width:2" d="M698,799 l0,-55 -22,0 -22,-1 -22,-1 -20,-1 -20,-2 -18,-2 -17,-3 -16,-2 -15,-3 -13,-3 -11,-4 -9,-3 -14,-8 -3,-4 -1,-4 1,-4 9,-7 8,-4 9,-4 11,-3 13,-3 15,-3 16,-3 17,-2 18,-2 20,-2 20,-2 22,-1 22,0 22,-1 0,-55 -15,0 -15,0 -15,1 -14,1 -15,1 -14,1 -13,2 -14,1 -13,2 -13,2 -12,3 -12,2 -12,3 -12,3 -10,3 -11,3 -10,3 -9,4 -9,4 -8,4 -8,4 -14,8 -11,8 -9,9 -6,10 -3,9 0,5 0,5 3,10 6,9 9,9 11,9 14,8 8,4 8,3 9,4 9,4 10,3 11,3 10,3 12,3 12,3 12,2 12,3 13,2 13,2 14,1 13,2 14,1 15,1 14,1 15,1 15,0 15,0z">
			</path>
			<path style="fill:#999;stroke:#000;stroke-width:2" d="M50,799 l0,-55 45,-1 42,-2 38,-4 34,-5 27,-6 29,-11 9,-8 2,-4 -2,-4 -26,-15 -39,-9 -34,-5 -38,-4 -42,-3 -22,0 -23,-1 0,-55 31,0 29,2 29,2 41,5 38,7 34,9 30,10 24,12 26,16 16,24 2,4 0,5 0,5 -14,24 -22,17 -32,15 -30,10 -34,9 -38,7 -41,5 -29,2 -29,2 -16,0 -15,0z">
			</path>
			<path style="fill:#b2b2b2;stroke:#000;stroke-width:2" d="M698,662 l0,-55 -22,0 -22,-1 -22,-1 -20,-1 -20,-2 -18,-2 -17,-2 -16,-3 -15,-2 -13,-3 -11,-4 -9,-3 -14,-8 -3,-4 -1,-5 1,-4 9,-7 8,-4 9,-4 11,-3 13,-3 15,-3 16,-3 17,-2 18,-2 20,-2 20,-2 22,-1 22,0 22,-1 0,-52 -15,0 -15,0 -15,1 -14,1 -15,0 -14,2 -13,1 -14,2 -13,2 -13,2 -12,2 -12,2 -12,3 -12,3 -10,3 -11,2 -10,4 -9,3 -9,4 -8,3 -8,4 -14,8 -11,8 -9,10 -6,9 -3,9 0,5 0,5 3,10 6,9 9,9 11,9 14,8 8,4 8,4 9,3 9,4 10,3 11,3 10,3 12,3 12,3 12,2 12,3 13,2 13,2 14,1 13,2 14,1 15,1 14,1 15,1 15,0 15,0z">
			</path>
			<path style="fill:#b2b2b2;stroke:#000;stroke-width:2" d="M50,662 l0,-55 45,-1 42,-2 38,-4 34,-5 27,-5 29,-11 9,-8 2,-5 -2,-4 -26,-15 -39,-9 -34,-5 -38,-4 -42,-3 -22,0 -23,-1 0,-52 31,0 29,2 29,2 41,5 38,6 34,9 30,9 24,11 26,16 16,24 2,4 0,5 0,5 -14,24 -22,17 -32,15 -30,10 -34,9 -38,7 -41,5 -29,2 -29,2 -16,0 -15,0z">
			</path>
			<path style="fill:#b2b2b2;stroke:#000;stroke-width:2" d="M698,525 l0,-55 -22,0 -22,-1 -22,0 -20,-2 -20,-2 -18,-1 -17,-3 -16,-2 -15,-3 -13,-3 -11,-4 -9,-3 -14,-8 -3,-4 -1,-5 1,-4 9,-7 8,-4 9,-4 11,-3 13,-3 15,-3 16,-3 17,-2 18,-2 20,-2 20,-1 22,-1 22,-1 22,0 0,-53 -15,0 -15,0 -15,1 -14,1 -15,1 -14,1 -13,2 -14,1 -13,2 -13,2 -12,3 -12,2 -12,3 -12,3 -10,2 -11,4 -10,3 -9,3 -9,4 -8,4 -8,4 -14,8 -11,8 -9,9 -6,8 -3,10 0,4 0,5 3,10 6,9 9,9 11,9 14,8 8,4 8,4 9,3 9,4 10,3 11,3 10,3 12,3 12,3 12,2 12,3 13,2 13,2 14,1 13,2 14,1 15,1 14,1 15,1 15,0 15,0z">
			</path>
			<path style="fill:#b2b2b2;stroke:#000;stroke-width:2" d="M50,525 l0,-55 45,-1 42,-2 38,-3 34,-5 27,-6 29,-11 9,-8 2,-5 -2,-4 -26,-15 -39,-9 -34,-5 -38,-4 -42,-2 -22,-1 -23,0 0,-53 31,0 29,2 29,2 41,5 38,7 34,8 30,10 24,12 26,16 16,22 2,5 0,4 0,5 -14,24 -22,17 -32,15 -30,10 -34,9 -38,7 -41,5 -29,2 -29,2 -16,0 -15,0z">
			</path>
			<path style="fill:#e5e5e5;stroke:#000;stroke-width:2" d="M698,389 l0,-53 -22,-1 -22,0 -22,-1 -20,-2 -20,-2 -18,-2 -17,-2 -16,-3 -15,-3 -13,-3 -11,-3 -9,-4 -14,-7 -3,-4 -1,-4 1,-5 9,-8 8,-4 9,-3 11,-4 13,-3 15,-3 16,-2 17,-3 18,-1 20,-2 20,-1 22,-1 22,-1 22,0 0,-55 -15,0 -15,0 -15,1 -14,1 -15,1 -14,1 -13,2 -14,1 -13,2 -13,2 -12,3 -12,2 -12,3 -12,3 -10,3 -11,3 -10,3 -9,4 -9,4 -8,3 -8,4 -14,8 -11,9 -9,9 -6,9 -3,10 0,5 0,5 3,9 6,9 9,8 11,9 14,8 8,4 8,3 9,4 9,4 10,3 11,3 10,3 12,3 12,2 12,3 12,2 13,2 13,2 14,2 13,1 14,2 15,1 14,1 15,0 15,1 15,0z">
			</path>
			<path style="fill:#e5e5e5;stroke:#000;stroke-width:2" d="M50,389 l0,-53 45,-1 42,-3 38,-4 34,-5 27,-6 29,-11 9,-7 2,-4 -2,-5 -26,-15 -39,-10 -34,-5 -38,-3 -42,-2 -22,-1 -23,0 0,-55 31,0 29,2 29,2 41,5 38,7 34,9 30,10 24,11 26,17 16,23 2,5 0,5 0,5 -18,26 -26,17 -24,11 -30,10 -34,8 -38,7 -41,5 -29,3 -29,1 -16,1 -15,0z">
			</path>
			<path style="fill:#e5e5e5;stroke:#000;stroke-width:2" d="M50,62 l31,0 29,2 29,2 41,5 38,7 34,9 30,10 24,11 26,17 16,23 2,5 0,5 0,5 -14,24 -22,17 -32,15 -30,10 -34,9 -38,6 -41,6 -29,2 -29,2 -16,0 -15,0 0,-55 45,-1 42,-2 38,-4 34,-5 27,-6 29,-11 9,-8 2,-4 -2,-4 -26,-16 -39,-9 -34,-5 -38,-4 -42,-2 -45,-1 -50,0 0,-55 50,0z">
			</path>
			<path style="fill:#e5e5e5;stroke:#000;stroke-width:2" d="M698,62 l-30,0 -29,2 -29,2 -40,5 -37,7 -34,9 -30,10 -25,11 -25,17 -17,23 -1,5 0,5 0,5 13,24 23,17 32,15 30,10 34,9 37,6 40,6 29,2 29,2 15,0 15,0 0,-55 -44,-1 -42,-2 -38,-4 -33,-5 -28,-6 -28,-11 -9,-8 -1,-4 1,-4 26,-16 39,-9 33,-5 38,-4 42,-2 44,-1 51,0 0,-55 -51,0z">
			</path>
		</svg>
	</g>
</svg>
