<svg xmlns="http://www.w3.org/2000/svg" viewBox="0 0 3998 1617">
	<g id="pump_1" transform="translate(0,0)" >
		<svg height="151" viewBox="0 0 591 525" width="189" preserveAspectRatio="none">
			<path style="fill:#808080;stroke:#000;stroke-width:2" d="M431,147 l6,18 3,19 2,19 1,18 -1,23 -3,22 -6,21 -7,21 -10,19 -11,18 -12,17 -15,16 -15,14 -17,13 -19,11 -19,10 -20,7 -21,6 -22,3 -23,1 -23,-1 -22,-3 -21,-6 -20,-7 -20,-10 -18,-11 -17,-13 -16,-14 -14,-16 -13,-17 -11,-18 -9,-19 -8,-21 -5,-21 -4,-22 -1,-23 1,-23 4,-22 5,-21 8,-20 9,-19 11,-19 13,-17 14,-15 16,-15 17,-12 18,-11 20,-10 20,-7 21,-6 22,-3 23,-1 369,0 0,147 -160,0z">
			</path>
			<path style="fill:#808080;stroke:#000;stroke-width:2" d="M371,384 l-16,13 -16,12 -18,10 -18,9 -20,6 -20,5 -20,3 -21,1 -21,-1 -21,-3 -20,-5 -20,-7 -19,-9 -18,-10 -16,-12 -15,-13 -72,142 443,0 -72,-141z">
			</path>
		</svg>
	</g>
</svg>
