<svg xmlns="http://www.w3.org/2000/svg" viewBox="0 0 3998 1617">
	<g id="tank-horizontal_1" transform="translate(0,0)" >
		<svg height="166" viewBox="0 0 999 604" width="303" preserveAspectRatio="none">
			<path style="fill:#ccc" d="M995,179 l4,74 0,76 -4,75 -8,66 -13,54 -14,38 -15,20 -892,0 -15,-20 -14,-38 -13,-54 -8,-66 -3,-74 0,-77 3,-74 8,-66 13,-54 14,-40 15,-19 892,0 15,19 14,38 13,56 8,66z">
			</path>
			<path style="fill:#d1d1d1" d="M995,189 l4,68 0,70 -4,67 -8,60 -13,50 -14,36 -15,18 -892,0 -15,-18 -14,-36 -11,-50 -10,-60 -3,-67 0,-70 3,-68 10,-62 11,-50 14,-34 15,-18 892,0 15,18 14,34 13,50 8,62z">
			</path>
			<path style="fill:#d6d6d6" d="M995,197 l4,62 0,63 -4,62 -8,56 -13,44 -14,32 -15,16 -892,0 -15,-16 -14,-32 -11,-44 -10,-56 -3,-62 0,-63 3,-62 10,-54 11,-46 14,-32 15,-16 892,0 15,16 14,32 13,46 8,54z">
			</path>
			<path style="fill:#d9d9d9" d="M995,207 l4,56 0,56 -4,55 -8,50 -13,40 -14,30 -15,14 -892,0 -15,-14 -14,-30 -11,-40 -10,-50 -3,-55 0,-56 3,-56 10,-50 11,-40 14,-28 15,-16 892,0 15,14 14,30 13,40 8,50z">
			</path>
			<path style="fill:#dedede" d="M995,217 l4,48 0,51 -4,48 -8,44 -13,38 -14,24 -15,14 -892,0 -15,-14 -14,-26 -11,-34 -10,-46 -3,-48 0,-51 3,-48 10,-44 11,-36 14,-26 15,-14 892,0 15,14 14,26 13,36 8,44z">
			</path>
			<path style="fill:#e3e3e3" d="M995,227 l4,42 0,44 -4,44 -8,37 -13,32 -14,22 -15,12 -892,-2 -15,-10 -14,-22 -11,-32 -10,-37 -3,-44 0,-44 3,-42 10,-40 11,-30 14,-24 15,-10 892,0 15,10 14,24 13,30 8,40z">
			</path>
			<path style="fill:#e8e8e8" d="M995,235 l4,38 0,38 -4,35 -8,32 -13,28 -14,18 -15,10 -892,0 -15,-10 -14,-18 -11,-28 -10,-32 -3,-35 0,-38 3,-38 10,-32 11,-28 14,-18 15,-10 892,0 15,10 14,18 13,28 8,32z">
			</path>
			<path style="fill:#ededed" d="M995,245 l4,30 0,32 -4,29 -8,28 -13,22 -14,16 -15,8 -892,0 -15,-8 -14,-16 -11,-22 -10,-28 -3,-29 0,-32 3,-30 10,-28 11,-22 14,-16 15,-8 892,0 15,8 14,16 13,22 8,28z">
			</path>
			<path style="fill:#f2f2f2" d="M995,255 l4,24 0,23 -4,25 -8,22 -13,17 -14,12 -15,8 -892,-2 -15,-6 -14,-12 -11,-17 -10,-22 -3,-25 0,-23 3,-24 10,-22 11,-18 14,-12 15,-6 892,0 15,6 14,12 13,18 8,22z">
			</path>
			<path style="fill:#f5f5f5" d="M995,265 l4,18 0,18 -4,18 -8,16 -13,11 -14,11 -15,3 -892,0 -15,-3 -14,-11 -11,-11 -10,-16 -3,-18 0,-18 3,-18 10,-16 11,-14 14,-10 15,-4 892,0 15,4 14,10 13,14 8,16z">
			</path>
			<path style="fill:#fafafa" d="M995,273 l4,12 0,12 -4,11 -8,11 -13,8 -14,6 -15,3 -892,0 -15,-3 -14,-6 -11,-8 -10,-11 -3,-11 0,-12 3,-12 10,-10 11,-8 14,-6 15,-4 892,0 15,4 14,6 13,8 8,10z">
			</path>
			<ellipse cx="499" cy="292" rx="499" ry="21" style="fill:#fff">
			</ellipse>
			<path style="fill:#f2f2f2" d="M61,0 l12,0 0,582 -12,0 0,-582z">
			</path>
			<path style="fill:#f2f2f2" d="M925,0 l10,0 0,582 -10,0 0,-582z">
			</path>
			<path style="fill:none;stroke:#000;stroke-width:2" d="M995,179 l4,74 0,76 -4,75 -8,66 -13,54 -14,38 -15,20 -892,0 -15,-20 -14,-38 -13,-54 -8,-66 -3,-74 0,-77 3,-74 8,-66 13,-54 14,-40 15,-19 892,0 15,19 14,38 13,56 8,66">
			</path>
			<path style="fill:#e3e3e3" d="M446,438 l104,0 0,166 -104,0 0,-166z">
			</path>
			<path style="fill:none;stroke:#000;stroke-width:2" d="M446,438 l0,166 104,0 0,-166">
			</path>
			<path style="fill:#e3e3e3" d="M155,438 l104,0 0,166 -104,0 0,-166z">
			</path>
			<path style="fill:none;stroke:#000;stroke-width:2" d="M155,438 l0,166 104,0 0,-166">
			</path>
			<path style="fill:#e3e3e3" d="M737,438 l106,0 0,166 -106,0 0,-166z">
			</path>
			<path style="fill:none;stroke:#000;stroke-width:2" d="M737,438 l0,166 106,0 0,-166">
			</path>
		</svg>
	</g>
</svg>
