<svg xmlns="http://www.w3.org/2000/svg" viewBox="0 0 3998 1617">
	<g id="letter-c_1" transform="translate(0,0)" >
		<svg height="123" viewBox="0 0 999 999" width="117" preserveAspectRatio="none">
			<path style="fill:#ebebe1;stroke:#adad84;stroke-width:2" d="M140,77 l31,-31 656,0 31,31 0,796 -31,32 -656,0 -31,-32 0,-796z">
			</path>
			<path style="fill:#e1e1d1" d="M530,671 l156,-234 125,-375 31,31 0,765 -31,31 -624,0 -32,-31 375,-187z">
			</path>
			<path style="fill:#e1e1d1" d="M312,124 l-63,63 -62,218 -31,-31 0,-281 31,-31 281,0 31,31 -187,31z">
			</path>
			<path style="fill:none;stroke:#fff;stroke-width:2" d="M140,873 l0,-796 31,-31 656,0">
			</path>
			<path style="fill:#666" d="M645,561 l59,20 -9,28 -11,25 -17,28 -19,22 -23,18 -29,15 -32,10 -34,5 -8,0 -9,0 -33,-2 -33,-6 -29,-9 -28,-13 -23,-23 -18,-22 -14,-24 -10,-28 -10,-31 -7,-32 -4,-32 -1,-7 0,-7 2,-35 6,-33 9,-30 10,-27 13,-25 18,-22 20,-19 27,-17 26,-13 28,-9 30,-6 7,-1 7,0 7,0 31,2 30,7 28,10 23,14 20,22 18,25 16,28 12,30 -59,13 -17,-34 -18,-26 -28,-22 -31,-12 -31,-5 -30,4 -28,9 -27,14 -22,19 -17,27 -10,30 -5,29 -5,31 -1,29 3,34 5,30 11,37 19,28 21,22 27,14 30,9 29,2 30,-3 28,-9 27,-14 23,-18 17,-27 10,-26 3,-21z">
			</path>
		</svg>
	</g>
</svg>
