<svg xmlns="http://www.w3.org/2000/svg" viewBox="0 0 3998 1617">
	<g id="letter-q_1" transform="translate(0,0)" >
		<svg height="123" viewBox="0 0 999 999" width="117" preserveAspectRatio="none">
			<path style="fill:#ebebe1;stroke:#adad84;stroke-width:2" d="M139,77 l32,-32 656,0 32,32 0,796 -32,32 -656,0 -32,-32 0,-796z">
			</path>
			<path style="fill:#e1e1d1" d="M531,671 l156,-234 124,-376 32,32 0,766 -32,30 -624,0 -32,-30 376,-188z">
			</path>
			<path style="fill:#e1e1d1" d="M311,125 l-62,62 -62,218 -32,-30 0,-282 32,-32 280,0 32,32 -188,32z">
			</path>
			<path style="fill:none;stroke:#fff;stroke-width:2" d="M139,873 l0,-796 32,-32 656,0">
			</path>
			<path style="fill:#666" d="M645,673 l25,18 24,16 25,11 5,1 -26,46 -28,-14 -25,-13 -23,-15 -17,-11 -25,9 -28,6 -28,4 -30,1 -29,-2 -29,-6 -25,-9 -27,-13 -21,-18 -20,-22 -17,-23 -12,-25 -10,-28 -7,-30 -5,-31 -1,-15 -1,-8 1,-8 3,-35 6,-32 9,-30 10,-27 15,-28 19,-23 20,-18 26,-17 26,-11 30,-9 30,-5 8,0 8,0 7,0 29,3 28,8 24,11 29,19 23,19 21,22 17,24 10,25 10,29 7,31 4,30 1,30 -3,29 -4,33 -6,28 -14,26 -17,27 -18,23 -4,3 0,-6z">
			</path>
			<path style="fill:#ebebe1" d="M513,594 l25,11 23,13 26,17 12,11 20,-24 13,-25 10,-28 7,-32 2,-29 0,-6 0,-7 -2,-30 -5,-30 -10,-27 -13,-24 -16,-23 -22,-21 -24,-12 -24,-10 -30,-7 -4,0 -8,0 -29,6 -28,11 -25,15 -21,20 -17,30 -11,26 -7,28 -5,29 -1,10 0,9 0,11 3,32 5,30 8,26 14,28 20,21 26,17 30,12 30,6 8,1 8,0 2,0 29,-3 27,-3 -23,-14 -27,-11 -8,-2 12,-52z">
			</path>
		</svg>
	</g>
</svg>
