<svg xmlns="http://www.w3.org/2000/svg" viewBox="0 0 3998 1617">
	<g id="letter-x_1" transform="translate(0,0)" >
		<svg height="123" viewBox="0 0 999 999" width="117" preserveAspectRatio="none">
			<path style="fill:#ebebe1;stroke:#adad84;stroke-width:2" d="M140,77 l31,-31 656,0 31,31 0,796 -31,32 -656,0 -31,-32 0,-796z">
			</path>
			<path style="fill:#e1e1d1" d="M530,671 l156,-234 125,-375 31,31 0,765 -31,31 -624,0 -32,-31 375,-187z">
			</path>
			<path style="fill:#e1e1d1" d="M312,124 l-63,63 -62,218 -31,-31 0,-281 31,-31 281,0 31,31 -187,31z">
			</path>
			<path style="fill:none;stroke:#fff;stroke-width:2" d="M140,873 l0,-796 31,-31 656,0">
			</path>
			<path style="fill:#666" d="M297,725 l171,-243 -152,-217 66,0 86,125 32,46 33,-52 86,-119 72,0 -158,217 178,243 -73,0 -118,-158 -20,-32 -19,32 -112,158 -72,0z">
			</path>
		</svg>
	</g>
</svg>
