<svg xmlns="http://www.w3.org/2000/svg" viewBox="0 0 3998 1617">
	<g id="letter-j_1" transform="translate(0,0)" >
		<svg height="123" viewBox="0 0 999 999" width="117" preserveAspectRatio="none">
			<path style="fill:#ebebe1;stroke:#adad84;stroke-width:2" d="M140,77 l31,-31 656,0 31,31 0,796 -31,32 -656,0 -31,-32 0,-796z">
			</path>
			<path style="fill:#e1e1d1" d="M530,671 l156,-234 125,-375 31,31 0,765 -31,31 -624,0 -32,-31 375,-187z">
			</path>
			<path style="fill:#e1e1d1" d="M312,124 l-63,63 -62,218 -31,-31 0,-281 31,-31 281,0 31,31 -187,31z">
			</path>
			<path style="fill:none;stroke:#fff;stroke-width:2" d="M140,873 l0,-796 31,-31 656,0">
			</path>
			<path style="fill:#666" d="M362,594 l60,-7 2,39 8,30 26,18 28,5 31,-6 24,-17 7,-27 4,-32 1,-10 0,-322 59,0 0,316 0,7 0,7 -3,33 -7,29 -14,24 -24,24 -27,16 -27,8 -19,3 -10,0 -8,0 -33,-5 -29,-11 -22,-17 -15,-24 -9,-31 -2,-29 -1,-7 0,-8 0,-6z">
			</path>
		</svg>
	</g>
</svg>
