<svg xmlns="http://www.w3.org/2000/svg" viewBox="0 0 3998 1617">
	<g id="letter-p_1" transform="translate(0,0)" >
		<svg height="123" viewBox="0 0 999 999" width="117" preserveAspectRatio="none">
			<path style="fill:#ebebe1;stroke:#adad84;stroke-width:2" d="M139,77 l32,-32 656,0 32,32 0,796 -32,32 -656,0 -32,-32 0,-796z">
			</path>
			<path style="fill:#e1e1d1" d="M531,671 l156,-234 124,-376 32,32 0,766 -32,30 -624,0 -32,-30 376,-188z">
			</path>
			<path style="fill:#e1e1d1" d="M311,125 l-62,62 -62,218 -32,-30 0,-282 32,-32 280,0 32,32 -188,32z">
			</path>
			<path style="fill:none;stroke:#fff;stroke-width:2" d="M139,873 l0,-796 32,-32 656,0">
			</path>
			<path style="fill:#666" d="M343,725 l0,-460 164,0 5,0 31,3 31,3 27,5 26,13 22,23 15,23 14,26 6,28 0,4 0,4 -4,35 -11,31 -19,27 -22,19 -28,13 -35,9 -30,3 -22,1 -111,0 0,190 -59,0z">
			</path>
			<path style="fill:#ebebe1" d="M402,482 l111,0 8,0 7,0 14,-1 12,-2 12,-2 11,-3 9,-3 10,-6 8,-8 7,-9 6,-10 5,-12 2,-9 1,-9 0,-5 0,-3 -1,-11 -2,-11 -3,-10 -3,-9 -4,-8 -7,-8 -8,-6 -7,-6 -10,-5 -10,-1 -11,-2 -11,-2 -12,-2 -13,-1 -5,0 -5,0 -111,0 0,164z">
			</path>
		</svg>
	</g>
</svg>
