<svg xmlns="http://www.w3.org/2000/svg" viewBox="0 0 3998 1617">
	<g id="letter-b_1" transform="translate(0,0)" >
		<svg height="123" viewBox="0 0 999 999" width="117" preserveAspectRatio="none">
			<path style="fill:#ebebe1;stroke:#adad84;stroke-width:2" d="M139,77 l32,-32 656,0 32,32 0,796 -32,32 -656,0 -32,-32 0,-796z">
			</path>
			<path style="fill:#e1e1d1" d="M531,671 l156,-234 124,-376 32,32 0,766 -32,30 -624,0 -32,-30 376,-188z">
			</path>
			<path style="fill:#e1e1d1" d="M311,125 l-62,62 -62,218 -32,-30 0,-282 32,-32 280,0 32,32 -188,32z">
			</path>
			<path style="fill:none;stroke:#fff;stroke-width:2" d="M139,873 l0,-796 32,-32 656,0">
			</path>
			<path style="fill:#666" d="M343,725 l0,-460 171,0 5,0 31,3 30,7 27,14 21,19 19,20 12,25 6,30 -3,30 -9,27 -22,22 -25,17 -7,3 27,12 24,20 18,24 12,27 4,24 0,5 0,4 -4,28 -9,27 -17,25 -20,20 -25,14 -27,7 -30,3 -29,3 -4,0 -5,0 -171,0z">
			</path>
			<path style="fill:#ebebe1" d="M402,673 l112,0 2,0 3,0 34,0 10,-1 9,-3 11,-2 3,-1 10,-6 8,-7 6,-7 4,-9 3,-8 3,-9 3,-9 2,-9 0,-3 0,-3 0,-2 -1,-10 -3,-10 -4,-10 -5,-10 -7,-7 -8,-6 -7,-6 -10,-5 -7,-2 -9,-3 -11,-4 -12,-3 -10,-1 -9,-1 -5,-1 -5,0 -5,0 -105,0 0,158z">
			</path>
			<path style="fill:#ebebe1" d="M402,462 l98,0 5,0 5,0 43,0 11,-2 8,-4 9,-6 6,-6 5,-8 5,-10 4,-9 3,-10 1,-5 0,-3 0,-2 -1,-11 -3,-12 -4,-10 -7,-12 -7,-9 -9,-7 -10,-4 -10,-3 -10,-4 -13,-3 -10,-2 -11,-1 -11,-1 -6,0 -6,0 -85,0 0,144z">
			</path>
		</svg>
	</g>
</svg>
