<svg xmlns="http://www.w3.org/2000/svg" viewBox="0 0 3998 1617">
	<g id="letter-u_1" transform="translate(0,0)" >
		<svg height="123" viewBox="0 0 999 999" width="117" preserveAspectRatio="none">
			<path style="fill:#ebebe1;stroke:#adad84;stroke-width:2" d="M140,77 l31,-31 656,0 31,31 0,796 -31,32 -656,0 -31,-32 0,-796z">
			</path>
			<path style="fill:#e1e1d1" d="M530,671 l156,-234 125,-375 31,31 0,765 -31,31 -624,0 -32,-31 375,-187z">
			</path>
			<path style="fill:#e1e1d1" d="M312,124 l-63,63 -62,218 -31,-31 0,-281 31,-31 281,0 31,31 -187,31z">
			</path>
			<path style="fill:none;stroke:#fff;stroke-width:2" d="M140,873 l0,-796 31,-31 656,0">
			</path>
			<path style="fill:#666" d="M625,265 l59,0 0,270 0,7 -1,29 -4,28 -5,30 -14,30 -21,27 -27,20 -30,12 -28,8 -31,5 -8,1 -7,0 -8,0 -29,-1 -28,-4 -32,-8 -25,-12 -24,-19 -16,-25 -10,-27 -7,-27 -4,-32 -2,-25 0,-9 0,-8 0,-270 59,0 0,263 2,35 3,28 2,23 17,28 22,18 28,9 28,3 35,-1 30,-5 29,-10 21,-18 15,-31 8,-32 3,-37 0,-273z">
			</path>
		</svg>
	</g>
</svg>
