<svg xmlns="http://www.w3.org/2000/svg" viewBox="0 0 3998 1617">
	<g id="letter-g_1" transform="translate(0,0)" >
		<svg height="123" viewBox="0 0 999 999" width="117" preserveAspectRatio="none">
			<path style="fill:#ebebe1;stroke:#adad84;stroke-width:2" d="M140,77 l31,-31 656,0 31,31 0,796 -31,32 -656,0 -31,-32 0,-796z">
			</path>
			<path style="fill:#e1e1d1" d="M530,671 l156,-234 125,-375 31,31 0,765 -31,31 -624,0 -32,-31 375,-187z">
			</path>
			<path style="fill:#e1e1d1" d="M312,124 l-63,63 -62,218 -31,-31 0,-281 31,-31 281,0 31,31 -187,31z">
			</path>
			<path style="fill:none;stroke:#fff;stroke-width:2" d="M140,873 l0,-796 31,-31 656,0">
			</path>
			<path style="fill:#666" d="M520,541 l0,-52 197,0 0,177 -28,18 -24,13 -29,12 -30,10 -27,7 -33,5 -14,1 -6,0 -6,0 -30,-2 -31,-6 -30,-9 -27,-9 -28,-13 -25,-19 -19,-23 -14,-24 -9,-31 -9,-32 -6,-32 -1,-15 -1,-8 0,-7 2,-30 6,-32 9,-32 9,-31 14,-28 18,-24 23,-20 24,-13 27,-14 31,-10 33,-7 17,-2 8,0 9,0 32,2 27,5 36,11 28,18 23,18 16,22 15,31 7,31 -53,13 -7,-29 -12,-24 -23,-18 -23,-14 -33,-10 -33,-4 -31,3 -28,6 -28,11 -27,17 -20,20 -17,24 -10,27 -6,30 -3,31 0,37 3,29 7,32 14,32 20,25 25,19 25,12 30,8 30,5 36,-1 28,-5 34,-10 28,-11 28,-19 0,-92 -138,0z">
			</path>
		</svg>
	</g>
</svg>
