<svg xmlns="http://www.w3.org/2000/svg" viewBox="0 0 3998 1617">
	<g id="number-3_1" transform="translate(0,0)" >
		<svg height="89" viewBox="0 0 999 999" width="93" preserveAspectRatio="none">
			<path style="fill:#ebebe1;stroke:#adad84;stroke-width:2" d="M140,77 l31,-31 656,0 31,31 0,796 -31,32 -656,0 -31,-32 0,-796z">
			</path>
			<path style="fill:#e1e1d1" d="M530,671 l156,-234 125,-375 31,31 0,765 -31,31 -624,0 -32,-31 375,-187z">
			</path>
			<path style="fill:#e1e1d1" d="M312,124 l-63,63 -62,218 -31,-31 0,-281 31,-31 281,0 31,31 -187,31z">
			</path>
			<path style="fill:none;stroke:#fff;stroke-width:2" d="M140,873 l0,-796 31,-31 656,0">
			</path>
			<path style="fill:#666" d="M349,600 l60,-6 5,29 11,24 22,21 34,10 39,-1 26,-10 27,-19 17,-22 9,-32 -8,-35 -18,-24 -32,-19 -31,-7 -32,-1 -17,0 7,-52 13,7 31,-5 28,-15 24,-24 9,-29 -5,-28 -15,-24 -27,-15 -32,-5 -29,5 -24,15 -18,24 -8,28 -59,-6 5,-31 13,-28 18,-23 24,-17 30,-13 34,-6 7,-1 7,0 28,3 32,8 27,19 26,24 17,30 7,29 -3,34 -15,30 -25,22 -22,12 29,12 25,16 21,28 12,30 5,22 0,10 0,7 -5,28 -11,25 -16,23 -25,25 -26,15 -31,10 -33,5 -9,0 -8,0 -28,-2 -32,-9 -29,-15 -24,-22 -15,-23 -11,-26 -5,-20 -1,-7 0,-8z">
			</path>
		</svg>
	</g>
</svg>
