<svg xmlns="http://www.w3.org/2000/svg" viewBox="0 0 3998 1617">
	<g id="number-7_1" transform="translate(0,0)" >
		<svg height="89" viewBox="0 0 999 999" width="93" preserveAspectRatio="none">
			<path style="fill:#ebebe1;stroke:#adad84;stroke-width:2" d="M140,77 l31,-31 656,0 31,31 0,796 -31,32 -656,0 -31,-32 0,-796z">
			</path>
			<path style="fill:#e1e1d1" d="M530,671 l156,-234 125,-375 31,31 0,765 -31,31 -624,0 -32,-31 375,-187z">
			</path>
			<path style="fill:#e1e1d1" d="M312,124 l-63,63 -62,218 -31,-31 0,-281 31,-31 281,0 31,31 -187,31z">
			</path>
			<path style="fill:none;stroke:#fff;stroke-width:2" d="M140,873 l0,-796 31,-31 656,0">
			</path>
			<path style="fill:#666" d="M356,331 l0,-59 302,0 0,53 -21,23 -22,28 -16,24 -16,26 -15,27 -15,30 -14,31 -13,32 -11,31 -8,30 -8,27 -7,30 -3,31 -2,23 0,7 -59,0 2,-34 4,-31 7,-34 9,-36 9,-29 10,-29 11,-27 13,-25 14,-24 16,-26 18,-25 18,-24 18,-23 22,-27 -243,0z">
			</path>
		</svg>
	</g>
</svg>
