<svg xmlns="http://www.w3.org/2000/svg" viewBox="0 0 3998 1617">
	<g id="number-9_1" transform="translate(0,0)" >
		<svg height="89" viewBox="0 0 999 999" width="93" preserveAspectRatio="none">
			<path style="fill:#ebebe1;stroke:#adad84;stroke-width:2" d="M139,77 l32,-32 656,0 32,32 0,796 -32,32 -656,0 -32,-32 0,-796z">
			</path>
			<path style="fill:#e1e1d1" d="M531,671 l156,-234 124,-376 32,32 0,766 -32,30 -624,0 -32,-30 376,-188z">
			</path>
			<path style="fill:#e1e1d1" d="M311,125 l-62,62 -62,218 -32,-30 0,-282 32,-32 280,0 32,32 -188,32z">
			</path>
			<path style="fill:#666" d="M356,614 l59,-7 7,30 17,22 25,15 28,5 30,-5 11,-1 26,-18 13,-26 12,-27 7,-31 6,-29 2,-29 0,-4 -23,22 -23,17 -24,12 -30,7 -34,-1 -32,-8 -29,-16 -25,-24 -15,-24 -9,-27 -5,-29 -1,-8 0,-7 0,-8 4,-33 9,-29 13,-26 19,-21 23,-17 26,-14 29,-8 15,-2 7,0 5,0 32,7 27,10 26,12 22,17 18,22 14,24 11,32 5,33 4,37 0,10 0,10 0,10 -1,39 -4,37 -6,34 -9,28 -11,24 -17,28 -21,21 -25,13 -28,11 -31,7 -12,1 -6,0 -7,0 -34,-5 -29,-9 -26,-16 -17,-24 -13,-29 -5,-28 0,-7z">
			</path>
			<path style="fill:#ebebe1" d="M599,417 l-1,-10 -1,-10 -3,-9 -3,-10 -4,-8 -7,-11 -7,-8 -6,-7 -7,-7 -9,-5 -10,-5 -10,-4 -10,-3 -10,-2 -6,0 -4,0 -5,0 -10,1 -10,2 -9,3 -9,4 -8,4 -10,7 -8,9 -5,8 -4,10 -4,10 -4,10 -3,11 -2,11 -1,10 0,5 0,5 0,10 1,9 2,10 4,12 5,11 7,9 9,7 8,5 9,4 10,4 11,3 10,2 10,1 6,0 4,0 10,-1 10,-1 9,-2 8,-2 12,-5 9,-6 10,-9 7,-7 5,-9 5,-9 4,-10 3,-10 1,-11 1,-5 0,-5 0,-6z">
			</path>
			<path style="fill:none;stroke:#fff;stroke-width:2" d="M139,873 l0,-796 32,-32 656,0">
			</path>
		</svg>
	</g>
</svg>
