<svg xmlns="http://www.w3.org/2000/svg" viewBox="0 0 3998 1617">
	<g id="number-8_1" transform="translate(0,0)" >
		<svg height="89" viewBox="0 0 999 999" width="93" preserveAspectRatio="none">
			<path style="fill:#ebebe1;stroke:#adad84;stroke-width:2" d="M139,77 l32,-32 656,0 32,32 0,796 -32,32 -656,0 -32,-32 0,-796z">
			</path>
			<path style="fill:#e1e1d1" d="M531,671 l156,-234 124,-376 32,32 0,766 -32,30 -624,0 -32,-30 376,-188z">
			</path>
			<path style="fill:#e1e1d1" d="M311,125 l-62,62 -62,218 -32,-30 0,-282 32,-32 280,0 32,32 -188,32z">
			</path>
			<path style="fill:none;stroke:#fff;stroke-width:2" d="M139,873 l0,-796 32,-32 656,0">
			</path>
			<path style="fill:#666" d="M435,476 l-27,-10 -23,-18 -15,-25 -7,-28 2,-32 9,-26 14,-24 23,-22 29,-16 33,-9 14,-1 7,0 7,0 30,4 27,8 25,11 25,20 18,27 10,28 2,32 -9,27 -18,22 -23,20 -22,12 27,12 21,19 16,22 13,26 8,29 0,5 0,5 0,7 -4,28 -11,31 -19,28 -21,18 -27,14 -30,8 -31,4 -7,0 -9,0 -32,-4 -30,-8 -25,-14 -21,-18 -16,-22 -11,-24 -7,-34 -1,-7 0,-7 0,-5 4,-31 9,-27 18,-24 21,-19 27,-12 7,0z">
			</path>
			<path style="fill:#ebebe1" d="M409,587 l1,11 1,9 2,10 2,11 1,10 6,11 10,10 11,6 10,4 10,3 11,3 11,2 10,2 3,0 3,0 9,0 10,-1 9,-1 9,-3 12,-4 11,-6 7,-7 8,-10 6,-11 4,-9 3,-9 2,-10 1,-9 1,-5 -1,-5 -1,-10 -2,-9 -3,-9 -4,-9 -4,-8 -7,-10 -8,-8 -10,-7 -9,-5 -9,-4 -10,-3 -11,-3 -10,-1 -5,-1 -5,0 -5,0 -9,1 -9,3 -12,4 -10,6 -9,8 -8,7 -7,9 -6,12 -4,9 -3,9 -2,9 -1,10 0,5 0,-7z">
			</path>
			<ellipse cx="500" cy="384" rx="79" ry="66" style="fill:#ebebe1">
			</ellipse>
		</svg>
	</g>
</svg>
