<svg xmlns="http://www.w3.org/2000/svg" viewBox="0 0 3998 1617">
	<g id="number-2_1" transform="translate(0,0)" >
		<svg height="89" viewBox="0 0 999 999" width="93" preserveAspectRatio="none">
			<path style="fill:#ebebe1;stroke:#adad84;stroke-width:2" d="M140,77 l31,-31 656,0 31,31 0,796 -31,32 -656,0 -31,-32 0,-796z">
			</path>
			<path style="fill:#e1e1d1" d="M530,671 l156,-234 125,-375 31,31 0,765 -31,31 -624,0 -32,-31 375,-187z">
			</path>
			<path style="fill:#e1e1d1" d="M312,124 l-63,63 -62,218 -31,-31 0,-281 31,-31 281,0 31,31 -187,31z">
			</path>
			<path style="fill:none;stroke:#fff;stroke-width:2" d="M140,873 l0,-796 31,-31 656,0">
			</path>
			<path style="fill:#666" d="M645,666 l0,59 -302,0 0,-5 0,-34 14,-32 19,-27 22,-25 21,-18 23,-20 21,-17 25,-21 21,-19 24,-22 20,-22 14,-25 10,-25 0,-31 -15,-27 -21,-20 -32,-15 -33,-1 -30,10 -21,21 -11,25 -5,28 -60,-6 4,-35 12,-30 19,-23 21,-18 25,-13 28,-9 21,-3 8,-1 7,0 29,3 28,7 26,12 22,18 17,21 15,28 7,30 -2,32 -8,28 -13,25 -18,28 -18,22 -20,20 -24,21 -28,21 -23,19 -28,25 -21,21 -20,20 230,0z">
			</path>
		</svg>
	</g>
</svg>
