<svg xmlns="http://www.w3.org/2000/svg" viewBox="0 0 3998 1617">
	<g id="light-red_1" transform="translate(0,0)" >
		<svg height="123" viewBox="0 0 783 999" width="132" preserveAspectRatio="none">
			<path style="fill:#ff0;stroke:#000;stroke-width:2" d="M325,841 l-1,-30 -2,-39 -4,-33 -6,-27 -11,-31 -12,-24 -19,-26 -21,-25 -21,-25 -15,-24 -12,-24 -10,-26 -7,-27 -4,-29 -2,-24 0,-6 0,-14 4,-37 9,-36 13,-34 18,-30 20,-28 24,-24 27,-19 29,-15 32,-11 33,-4 11,-1 11,1 33,4 32,11 29,15 27,19 24,24 20,28 18,30 13,34 9,36 4,37 0,14 0,6 -2,31 -5,29 -8,28 -12,27 -14,27 -18,26 -20,22 -19,21 -17,25 -12,25 -9,32 -5,29 -4,35 -2,42 0,15 -146,0z">
			</path>
			<ellipse cx="320" cy="904" rx="5" ry="63" style="fill:#fff">
			</ellipse>
			<path style="fill:#fcfcfc" d="M326,967 l0,-126 10,0 0,130 -10,-4z">
			</path>
			<path style="fill:#f7f7f7" d="M336,971 l0,-130 10,0 0,134 -10,-4z">
			</path>
			<path style="fill:#f4f4f4" d="M346,975 l0,-134 11,0 0,138 -11,-4z">
			</path>
			<path style="fill:#efefef" d="M357,979 l0,-138 10,0 0,142 -10,-4z">
			</path>
			<path style="fill:#eaeaea" d="M367,983 l0,-142 10,0 0,146 -10,-4z">
			</path>
			<path style="fill:#e8e8e8" d="M377,987 l0,-146 11,0 0,147 -8,0 -3,-1z">
			</path>
			<path style="fill:#e2e2e2" d="M388,988 l0,-147 10,0 0,147 -10,0z">
			</path>
			<path style="fill:#e0e0e0" d="M398,988 l0,-147 10,0 0,147 -10,0z">
			</path>
			<path style="fill:#dbdbdb" d="M408,988 l0,-147 11,0 0,146 -3,1 -8,0z">
			</path>
			<path style="fill:#d6d6d6" d="M419,987 l0,-146 10,0 0,142 -10,4z">
			</path>
			<path style="fill:#d1d1d1" d="M429,983 l0,-142 10,0 0,138 -10,4z">
			</path>
			<path style="fill:#cecece" d="M439,979 l0,-138 11,0 0,134 -11,4z">
			</path>
			<path style="fill:#c9c9c9" d="M450,975 l0,-134 10,0 0,130 -10,4z">
			</path>
			<path style="fill:#c6c6c6" d="M460,971 l0,-130 10,0 0,126 -10,4z">
			</path>
			<path style="fill:none;stroke:#000;stroke-width:2" d="M325,851 l-10,11 10,10 0,11 -10,10 10,11 0,10 -10,11 10,10 0,32 55,21 36,0 55,-21 0,-11 10,-10 -10,-11 0,-10 10,-11 -10,-10 0,-11 10,-10 -10,-11 0,-31 -146,0 0,10">
			</path>
			<path style="fill:none;stroke:#000;stroke-width:2" d="M315,862 l166,21">
			</path>
			<path style="fill:none;stroke:#000;stroke-width:2" d="M315,893 l166,21">
			</path>
			<path style="fill:none;stroke:#000;stroke-width:2" d="M315,925 l166,21">
			</path>
			<path style="fill:#ff0;stroke:#000;stroke-width:2" d="M669,341 l73,-21 38,-24 -42,10 -69,35z">
			</path>
			<path style="fill:#ff0;stroke:#000;stroke-width:2" d="M589,184 l60,-52 26,-40 -36,29 -50,63z">
			</path>
			<path style="fill:#ff0;stroke:#000;stroke-width:2" d="M452,131 l22,-82 2,-49 -15,46 -9,85z">
			</path>
			<path style="fill:#ff0;stroke:#000;stroke-width:2" d="M306,144 l-24,-81 -24,-41 12,47 36,75z">
			</path>
			<path style="fill:#ff0;stroke:#000;stroke-width:2" d="M167,248 l-54,-59 -39,-24 31,36 62,47z">
			</path>
			<path style="fill:#ff0;stroke:#000;stroke-width:2" d="M132,524 l-71,27 -36,28 42,-14 65,-41z">
			</path>
			<path style="fill:#ff0;stroke:#000;stroke-width:2" d="M192,646 l-46,42 -20,31 28,-23 38,-50z">
			</path>
			<path style="fill:#ff0;stroke:#000;stroke-width:2" d="M117,378 l-75,-11 -42,7 42,9 75,-5z">
			</path>
			<path style="fill:#ff0;stroke:#000;stroke-width:2" d="M668,497 l71,28 44,4 -41,-19 -74,-13z">
			</path>
			<path style="fill:#ff0;stroke:#000;stroke-width:2" d="M606,635 l36,54 27,24 -19,-32 -44,-46z">
			</path>
		</svg>
	</g>
</svg>
