<svg xmlns="http://www.w3.org/2000/svg" viewBox="0 0 3998 1617">
	<g id="jackup_1" transform="translate(0,0)" >
		<svg height="233" viewBox="0 0 904 999" width="275" preserveAspectRatio="none">
			<path style="fill:none;stroke:#000;stroke-width:2" d="M716,462 l84,84 85,-84">
			</path>
			<path style="fill:none;stroke:#000;stroke-width:2" d="M338,753 l114,94 113,-94 113,94 113,-94">
			</path>
			<path style="fill:none;stroke:#000;stroke-width:2" d="M338,848 l114,-94 113,94 113,-94 113,94">
			</path>
			<path style="fill:none;stroke:#000;stroke-width:2" d="M357,707 l-75,56">
			</path>
			<path style="fill:none;stroke:#000;stroke-width:2" d="M282,707 l75,56">
			</path>
			<path style="fill:none;stroke:#000;stroke-width:2" d="M716,443 l0,-19">
			</path>
			<path style="fill:none;stroke:#000;stroke-width:2" d="M885,443 l0,-19">
			</path>
			<path style="fill:none;stroke:#000;stroke-width:2" d="M772,443 l0,-19">
			</path>
			<path style="fill:none;stroke:#000;stroke-width:2" d="M829,443 l0,-19">
			</path>
			<path style="fill:none;stroke:#000;stroke-width:2" d="M469,66 l0,376">
			</path>
			<path style="fill:none;stroke:#000;stroke-width:2" d="M497,173 l-44,-61">
			</path>
			<path style="fill:none;stroke:#000;stroke-width:2" d="M444,173 l44,-61">
			</path>
			<path style="fill:none;stroke:#000;stroke-width:2" d="M508,232 l-66,-53">
			</path>
			<path style="fill:none;stroke:#000;stroke-width:2" d="M434,232 l66,-53">
			</path>
			<path style="fill:none;stroke:#000;stroke-width:2" d="M432,232 l88,57">
			</path>
			<path style="fill:none;stroke:#000;stroke-width:2" d="M510,232 l-86,57">
			</path>
			<path style="fill:none;stroke:#000;stroke-width:2" d="M421,302 l111,68">
			</path>
			<path style="fill:none;stroke:#000;stroke-width:2" d="M521,302 l-112,68">
			</path>
			<path style="fill:none;stroke:#000;stroke-width:2" d="M406,377 l140,66">
			</path>
			<path style="fill:none;stroke:#000;stroke-width:2" d="M534,377 l-139,66">
			</path>
			<path style="fill:none;stroke:#000;stroke-width:2" d="M0,499 l0,85">
			</path>
			<path style="fill:#e5e5e5;stroke:#000;stroke-width:2" d="M782,443 l0,-132 10,0 35,46 -7,6 -28,-38 0,118 -10,0z">
			</path>
			<path style="fill:#000;stroke:#000;stroke-width:2" d="M468,134 l5,0 0,6 -5,0 0,-6z">
			</path>
			<path style="fill:#000;stroke:#000;stroke-width:2" d="M466,254 l11,0 0,7 -11,0 0,-7z">
			</path>
			<path style="fill:#000;stroke:#000;stroke-width:2" d="M466,329 l11,0 0,7 -11,0 0,-7z">
			</path>
			<path style="fill:#000;stroke:#000;stroke-width:2" d="M466,404 l11,0 0,8 -11,0 0,-8z">
			</path>
			<path style="fill:#000;stroke:#000;stroke-width:2" d="M466,200 l11,0 0,6 -11,0 0,-6z">
			</path>
			<path style="fill:#999;stroke:#000;stroke-width:2" d="M442,169 l57,0 0,10 -57,0 0,-10z">
			</path>
			<path style="fill:#999;stroke:#000;stroke-width:2" d="M414,367 l113,0 0,9 -113,0 0,-9z">
			</path>
			<path style="fill:#666;stroke:#000;stroke-width:2" d="M790,753 l39,0 0,246 -39,0 0,-246z">
			</path>
			<path style="fill:#666;stroke:#000;stroke-width:2" d="M300,753 l38,0 0,246 -38,0 0,-246z">
			</path>
			<path style="fill:#b2b2b2;stroke:#000;stroke-width:2" d="M395,527 l0,-56 151,0 0,56 -151,0z">
			</path>
			<path style="fill:#b2b2b2;stroke:#000;stroke-width:2" d="M376,753 l0,-226 227,0 0,76 113,0 0,-38 169,1 -56,56 0,131 -453,0z">
			</path>
			<path style="fill:#000;stroke:#000;stroke-width:2" d="M490,678 l0,-18 358,0 0,18 -358,0z">
			</path>
			<path style="fill:#e5e5e5;stroke:#000;stroke-width:2" d="M395,471 l0,-38 151,0 0,38 -151,0z">
			</path>
			<path style="fill:#333;stroke:#000;stroke-width:2" d="M358,753 l0,-37 18,0 0,37 -18,0z">
			</path>
			<path style="fill:#333;stroke:#000;stroke-width:2" d="M263,753 l0,-37 19,0 0,37 -19,0z">
			</path>
			<path style="fill:#000;stroke:#000;stroke-width:2" d="M414,584 l18,0 0,132 -18,0 0,-132z">
			</path>
			<path style="fill:#000;stroke:#000;stroke-width:2" d="M603,660 l0,-57 113,0 0,57 -113,0z">
			</path>
			<path style="fill:#000;stroke:#000;stroke-width:2" d="M490,753 l0,-28 358,0 0,28 -358,0z">
			</path>
			<path style="fill:#7f7f7f;stroke:#000;stroke-width:2" d="M245,772 l0,-19 150,0 0,19 -150,0z">
			</path>
			<path style="fill:#7f7f7f;stroke:#000;stroke-width:2" d="M245,716 l0,-19 150,0 0,19 -150,0z">
			</path>
			<path style="fill:#7f7f7f;stroke:#000;stroke-width:2" d="M490,725 l0,-47 358,0 0,47 -358,0z">
			</path>
			<path style="fill:#7f7f7f;stroke:#000;stroke-width:2" d="M583,622 l0,-19 151,0 0,19 -151,0z">
			</path>
			<path style="fill:#7f7f7f;stroke:#000;stroke-width:2" d="M357,546 l0,-19 264,0 0,19 -264,0z">
			</path>
			<path style="fill:#000;stroke:#000;stroke-width:2" d="M338,848 l170,0 0,-95 19,0 0,95 38,0 0,-95 18,0 0,95 76,0 0,-95 19,0 0,95 56,0 0,-95 19,0 0,95 38,0 0,28 -453,0 0,-28z">
			</path>
			<path style="fill:#000;stroke:#000;stroke-width:2" d="M301,772 l0,67 37,-29 0,-38 -37,0z">
			</path>
			<path style="fill:#000;stroke:#000;stroke-width:2" d="M792,753 l0,67 37,-28 0,-39 -37,0z">
			</path>
			<path style="fill:#7f7f7f;stroke:#000;stroke-width:2" d="M697,566 l0,-20 207,0 0,20 -207,0z">
			</path>
			<path style="fill:#7f7f7f;stroke:#000;stroke-width:2" d="M697,462 l0,-20 207,0 0,20 -207,0z">
			</path>
			<path style="fill:#4c4c4c;stroke:#000;stroke-width:2" d="M706,546 l0,-84 19,0 0,84 -19,0z">
			</path>
			<path style="fill:#4c4c4c;stroke:#000;stroke-width:2" d="M792,546 l0,-84 18,0 0,84 -18,0z">
			</path>
			<path style="fill:#4c4c4c;stroke:#000;stroke-width:2" d="M877,546 l0,-84 18,0 0,84 -18,0z">
			</path>
			<path style="fill:#000;stroke:#000;stroke-width:2" d="M716,566 l0,18 150,0 19,-18 -169,0z">
			</path>
			<path style="fill:none;stroke:#000;stroke-width:2" d="M631,603 l19,-217 9,0 19,217 -38,-94 23,-66 -17,0 23,66 -38,94">
			</path>
			<path style="fill:none;stroke:#000;stroke-width:2" d="M640,509 l29,0">
			</path>
			<path style="fill:none;stroke:#000;stroke-width:2" d="M663,443 l-13,-57">
			</path>
			<path style="fill:none;stroke:#000;stroke-width:2" d="M645,443 l14,-57">
			</path>
			<path style="fill:#000;stroke:#000;stroke-width:2" d="M650,386 l0,-19 9,0 0,19 -9,0z">
			</path>
			<path style="fill:#ccc;stroke:#000;stroke-width:2" d="M697,518 l207,0 0,9 -207,0 0,-9z">
			</path>
			<path style="fill:#ccc;stroke:#000;stroke-width:2" d="M697,415 l207,0 0,9 -207,0 0,-9z">
			</path>
			<path style="fill:#b2b2b2;stroke:#000;stroke-width:2" d="M395,433 l57,-377 37,0 57,377 -19,0 -47,-358 -19,0 -47,358 -19,0z">
			</path>
			<path style="fill:#e5e5e5;stroke:#000;stroke-width:2" d="M442,56 l57,0 0,19 -57,0 0,-19z">
			</path>
			<path style="fill:#e5e5e5;stroke:#000;stroke-width:2" d="M466,0 l9,0 0,56 -9,0 0,-56z">
			</path>
			<path style="fill:#e5e5e5;stroke:#000;stroke-width:2" d="M395,292 l151,0 0,19 -151,0 0,-19z">
			</path>
			<path style="fill:#e5e5e5;stroke:#000;stroke-width:2" d="M424,103 l94,0 0,19 -94,0 0,-19z">
			</path>
			<path style="fill:#ccc;stroke:#000;stroke-width:2" d="M245,669 l150,0 0,-66 -28,-29 -94,0 -19,20 -151,-123 207,103 10,0 -236,-122 -76,38 76,-28 161,151 0,56z">
			</path>
			<circle cx="84" cy="451" r="9" style="fill:#000;stroke:#000;stroke-width:2">
			</circle>
			<circle cx="9" cy="499" r="9" style="fill:#000;stroke:#000;stroke-width:2">
			</circle>
			<circle cx="225" cy="518" r="9" style="fill:#000;stroke:#000;stroke-width:2">
			</circle>
			<path style="fill:#000;stroke:#000;stroke-width:2" d="M254,622 l28,-38 19,0 0,38 -47,0z">
			</path>
			<path style="fill:#000;stroke:#000;stroke-width:2" d="M310,622 l0,-38 19,0 0,38 -19,0z">
			</path>
			<path style="fill:#000;stroke:#000;stroke-width:2" d="M254,669 l131,0 0,19 -131,0 0,-19z">
			</path>
			<path style="fill:#b2b2b2;stroke:#000;stroke-width:2" d="M254,688 l131,0 0,9 -131,0 0,-9z">
			</path>
		</svg>
	</g>
</svg>
